<svg width="32" height="32" viewBox="0 0 32 32" fill="none" xmlns="http://www.w3.org/2000/svg">
<rect width="32" height="32" rx="8" fill="black"/>
<path fill-rule="evenodd" clip-rule="evenodd" d="M12 6C8.68629 6 6 8.68629 6 12V20C6 23.3137 8.68629 26 12 26H16V22.6302C13.5292 22.6353 11.0645 21.6413 9.2627 19.6758L10.7373 18.3242C12.1446 19.8594 14.0701 20.6352 16 20.6301V6H12ZM12.5 10C11.6716 10 11 10.6716 11 11.5V13.5C11 14.3284 11.6716 15 12.5 15C13.3284 15 14 14.3284 14 13.5V11.5C14 10.6716 13.3284 10 12.5 10Z" fill="white"/>
<mask id="path-3-inside-1_39_219" fill="white">
<path fill-rule="evenodd" clip-rule="evenodd" d="M20.3086 25.9922L20 26H16V25H20C22.7614 25 25 22.7614 25 20V12C25 9.23858 22.7614 7 20 7H16V6H20L20.3086 6.00781C23.4789 6.16843 26 8.78979 26 12V20L25.9922 20.3086C25.8368 23.3767 23.3767 25.8368 20.3086 25.9922ZM16 20.6301V7H12C9.23858 7 7 9.23858 7 12V20C7 22.7614 9.23858 25 12 25H16V22.6302C18.2035 22.6258 20.4119 21.8268 22.1592 20.2139L22.6787 19.7344L21.3213 18.2656L20.8027 18.7441C19.4401 20.0019 17.7183 20.6255 16 20.6301ZM16 20.6301V22.6302C13.5292 22.6353 11.0645 21.6413 9.2627 19.6758L10.7373 18.3242C12.1446 19.8594 14.0701 20.6352 16 20.6301ZM6.00781 20.3086C6.01657 20.4814 6.03263 20.6522 6.0557 20.8208C6.01898 20.5525 6 20.2785 6 20L6.00781 20.3086ZM11 11.5C11 10.6716 11.6716 10 12.5 10C13.3284 10 14 10.6716 14 11.5V13.5C14 14.3284 13.3284 15 12.5 15C11.6716 15 11 14.3284 11 13.5V11.5ZM19.5 10C18.6716 10 18 10.6716 18 11.5V13.5C18 14.3284 18.6716 15 19.5 15C20.3284 15 21 14.3284 21 13.5V11.5C21 10.6716 20.3284 10 19.5 10Z"/>
</mask>
<path fill-rule="evenodd" clip-rule="evenodd" d="M20.3086 25.9922L20 26H16V25H20C22.7614 25 25 22.7614 25 20V12C25 9.23858 22.7614 7 20 7H16V6H20L20.3086 6.00781C23.4789 6.16843 26 8.78979 26 12V20L25.9922 20.3086C25.8368 23.3767 23.3767 25.8368 20.3086 25.9922ZM16 20.6301V7H12C9.23858 7 7 9.23858 7 12V20C7 22.7614 9.23858 25 12 25H16V22.6302C18.2035 22.6258 20.4119 21.8268 22.1592 20.2139L22.6787 19.7344L21.3213 18.2656L20.8027 18.7441C19.4401 20.0019 17.7183 20.6255 16 20.6301ZM16 20.6301V22.6302C13.5292 22.6353 11.0645 21.6413 9.2627 19.6758L10.7373 18.3242C12.1446 19.8594 14.0701 20.6352 16 20.6301ZM6.00781 20.3086C6.01657 20.4814 6.03263 20.6522 6.0557 20.8208C6.01898 20.5525 6 20.2785 6 20L6.00781 20.3086ZM11 11.5C11 10.6716 11.6716 10 12.5 10C13.3284 10 14 10.6716 14 11.5V13.5C14 14.3284 13.3284 15 12.5 15C11.6716 15 11 14.3284 11 13.5V11.5ZM19.5 10C18.6716 10 18 10.6716 18 11.5V13.5C18 14.3284 18.6716 15 19.5 15C20.3284 15 21 14.3284 21 13.5V11.5C21 10.6716 20.3284 10 19.5 10Z" fill="white"/>
<path d="M20 26V27H20.0127L20.0253 26.9997L20 26ZM20.3086 25.9922L20.3339 26.9919L20.3466 26.9915L20.3592 26.9909L20.3086 25.9922ZM16 26H15V27H16V26ZM20 7L20 6H20V7ZM16 6V5H15V6H16ZM20 6L20.0253 5.00032L20.0127 5H20V6ZM20.3086 6.00781L20.3592 5.00909L20.3466 5.00845L20.3339 5.00813L20.3086 6.00781ZM26 20L26.9997 20.0253L27 20.0127V20H26ZM25.9922 20.3086L26.9909 20.3592L26.9915 20.3466L26.9919 20.3339L25.9922 20.3086ZM12 7L12 6L12 6L12 7ZM22.1592 20.2139L21.481 19.479L21.4809 19.4791L22.1592 20.2139ZM22.6787 19.7344L23.3569 20.4692L24.0923 19.7905L23.4131 19.0556L22.6787 19.7344ZM21.3213 18.2656L22.0557 17.5869L21.3775 16.8531L20.6431 17.5307L21.3213 18.2656ZM20.8027 18.7441L20.1246 18.0092L20.1245 18.0093L20.8027 18.7441ZM9.2627 19.6758L8.58701 18.9386L7.84978 19.6143L8.52554 20.3515L9.2627 19.6758ZM10.7373 18.3242L11.4745 17.6485L10.7988 16.9114L10.0616 17.587L10.7373 18.3242ZM6.0557 20.8208L5.06493 20.9564L7.04647 20.6853L6.0557 20.8208ZM6.00781 20.3086L5.00813 20.3339L5.00845 20.3466L5.00909 20.3592L6.00781 20.3086ZM6 20L6.99968 19.9747L5 20H6ZM20 26L20.0253 26.9997L20.3339 26.9919L20.3086 25.9922L20.2833 24.9925L19.9747 25.0003L20 26ZM16 26V27H20V26V25H16V26ZM16 25H15V26H16H17V25H16ZM16 25V26H20V25V24H16V25ZM20 25V26C23.3137 26 26 23.3137 26 20H25H24C24 22.2091 22.2091 24 20 24V25ZM25 20H26V12H25H24V20H25ZM25 12H26C26 8.68629 23.3137 6 20 6L20 7L20 8C22.2091 8 24 9.79086 24 12H25ZM20 7V6H16V7V8H20V7ZM16 6H15V7H16H17V6H16ZM20 6V5H16V6V7H20V6ZM20.3086 6.00781L20.3339 5.00813L20.0253 5.00032L20 6L19.9747 6.99968L20.2833 7.00749L20.3086 6.00781ZM26 12H27C27 8.25445 24.0587 5.19652 20.3592 5.00909L20.3086 6.00781L20.258 7.00653C22.8991 7.14034 25 9.32513 25 12H26ZM26 20H27V12H26H25V20H26ZM25.9922 20.3086L26.9919 20.3339L26.9997 20.0253L26 20L25.0003 19.9747L24.9925 20.2833L25.9922 20.3086ZM20.3086 25.9922L20.3592 26.9909C23.9398 26.8095 26.8095 23.9398 26.9909 20.3592L25.9922 20.3086L24.9935 20.258C24.864 22.8136 22.8136 24.864 20.258 24.9935L20.3086 25.9922ZM16 7H15V20.6301H16H17V7H16ZM16 7V6H12V7V8H16V7ZM12 7L12 6C8.68629 6 6 8.68629 6 12H7H8C8 9.79086 9.79086 8 12 8L12 7ZM7 12H6V20H7H8V12H7ZM7 20H6C6 23.3137 8.68629 26 12 26V25V24C9.79086 24 8 22.2091 8 20H7ZM12 25V26H16V25V24H12V25ZM16 22.6302H15V25H16H17V22.6302H16ZM22.1592 20.2139L21.4809 19.4791C19.9249 20.9153 17.9607 21.6263 15.998 21.6302L16 22.6302L16.002 23.6302C18.4463 23.6253 20.8988 22.7382 22.8375 20.9487L22.1592 20.2139ZM22.6787 19.7344L22.0005 18.9995L21.481 19.479L22.1592 20.2139L22.8374 20.9487L23.3569 20.4692L22.6787 19.7344ZM21.3213 18.2656L20.5869 18.9444L21.9443 20.4131L22.6787 19.7344L23.4131 19.0556L22.0557 17.5869L21.3213 18.2656ZM20.8027 18.7441L21.4809 19.4791L21.9995 19.0005L21.3213 18.2656L20.6431 17.5307L20.1246 18.0092L20.8027 18.7441ZM16 20.6301L16.0027 21.6301C17.9616 21.6249 19.9272 20.9132 21.481 19.4789L20.8027 18.7441L20.1245 18.0093C18.953 19.0906 17.4751 19.6262 15.9973 19.6301L16 20.6301ZM16 22.6302H17V20.6301H16H15V22.6302H16ZM9.2627 19.6758L8.52554 20.3515C10.5251 22.5328 13.2621 23.6358 16.002 23.6302L16 22.6302L15.998 21.6302C13.7963 21.6347 11.6038 20.7498 9.99985 19.0001L9.2627 19.6758ZM10.7373 18.3242L10.0616 17.587L8.58701 18.9386L9.2627 19.6758L9.93838 20.413L11.413 19.0614L10.7373 18.3242ZM16 20.6301L15.9973 19.6301C14.3368 19.6345 12.6838 18.9678 11.4745 17.6485L10.7373 18.3242L10.0002 18.9999C11.6054 20.7511 13.8034 21.6359 16.0027 21.6301L16 20.6301ZM6.0557 20.8208L7.04647 20.6853C7.02725 20.5448 7.01384 20.4023 7.00653 20.258L6.00781 20.3086L5.00909 20.3592C5.01929 20.5605 5.03801 20.7596 5.06493 20.9564L6.0557 20.8208ZM6 20H5C5 20.3239 5.02208 20.6433 5.06493 20.9564L6.0557 20.8208L7.04647 20.6853C7.01587 20.4617 7 20.233 7 20H6ZM6.00781 20.3086L7.00749 20.2833L6.99968 19.9747L6 20L5.00032 20.0253L5.00813 20.3339L6.00781 20.3086ZM12.5 10V9C11.1193 9 10 10.1193 10 11.5H11H12C12 11.2239 12.2239 11 12.5 11V10ZM14 11.5H15C15 10.1193 13.8807 9 12.5 9V10V11C12.7761 11 13 11.2239 13 11.5H14ZM14 13.5H15V11.5H14H13V13.5H14ZM12.5 15V16C13.8807 16 15 14.8807 15 13.5H14H13C13 13.7761 12.7761 14 12.5 14V15ZM11 13.5H10C10 14.8807 11.1193 16 12.5 16V15V14C12.2239 14 12 13.7761 12 13.5H11ZM11 11.5H10V13.5H11H12V11.5H11ZM18 11.5H19C19 11.2239 19.2239 11 19.5 11V10V9C18.1193 9 17 10.1193 17 11.5H18ZM18 13.5H19V11.5H18H17V13.5H18ZM19.5 15V14C19.2239 14 19 13.7761 19 13.5H18H17C17 14.8807 18.1193 16 19.5 16V15ZM21 13.5H20C20 13.7761 19.7761 14 19.5 14V15V16C20.8807 16 22 14.8807 22 13.5H21ZM21 11.5H20V13.5H21H22V11.5H21ZM19.5 10V11C19.7761 11 20 11.2239 20 11.5H21H22C22 10.1193 20.8807 9 19.5 9V10Z" fill="white" mask="url(#path-3-inside-1_39_219)"/>
</svg>
