<svg width="271" height="91" viewBox="0 0 271 91" fill="none" xmlns="http://www.w3.org/2000/svg">
<g clip-path="url(#clip0_2_60)">
<rect y="0.4375" width="271" height="90.3333" fill="white"/>
<g opacity="0.5" clip-path="url(#clip1_2_60)">
<g clip-path="url(#clip2_2_60)">
<path opacity="0.5" fill-rule="evenodd" clip-rule="evenodd" d="M68.16 68.8375H71V69.5575H68.16V72.4375H67.45V69.5575H61.06V72.4375H60.35V69.5575H53.96V72.4375H53.25V69.5575H46.86V72.4375H46.15V69.5575H39.76V72.4375H39.05V69.5575H32.66V72.4375H31.95V69.5575H25.56V72.4375H24.85V69.5575H18.46V72.4375H17.75V69.5575H11.36V72.4375H10.65V69.5575H0V68.8375H10.65V62.3575H0V61.6375H10.65V55.1575H0V54.4375H10.65V47.9575H0V47.2375H10.65V40.7575H0V40.0375H10.65V33.5575H0V32.8375H10.65V26.3575H0V25.6375H10.65V19.1575H0V18.4375H10.65V11.9575H0V11.2375H10.65V0.4375H11.36V11.2375H17.75V0.4375H18.46V11.2375H24.85V0.4375H25.56V11.2375H31.95V0.4375H32.66V11.2375H39.05V0.4375H39.76V11.2375H46.15V0.4375H46.86V11.2375H53.25V0.4375H53.96V11.2375H60.35V0.4375H61.06V11.2375H67.45V0.4375H68.16V11.2375H71V11.9575H68.16V18.4375H71V19.1575H68.16V25.6375H71V26.3575H68.16V32.8375H71V33.5575H68.16V40.0375H71V40.7575H68.16V47.2375H71V47.9575H68.16V54.4375H71V55.1575H68.16V61.6375H71V62.3575H68.16V68.8375ZM67.45 68.8375V62.3575H61.06V68.8375H67.45ZM60.35 68.8375V62.3575H53.96V68.8375H60.35ZM53.25 68.8375V62.3575H46.86V68.8375H53.25ZM46.15 68.8375V62.3575H39.76V68.8375H46.15ZM39.05 68.8375V62.3575H32.66V68.8375H39.05ZM31.95 68.8375V62.3575H25.56V68.8375H31.95ZM24.85 68.8375V62.3575H18.46V68.8375H24.85ZM17.75 68.8375V62.3575H11.36V68.8375H17.75ZM11.36 61.6375H17.75V55.1575H11.36V61.6375ZM18.46 61.6375H24.85V55.1575H18.46V61.6375ZM25.56 61.6375H31.95V55.1575H25.56V61.6375ZM32.66 61.6375H39.05V55.1575H32.66V61.6375ZM39.76 61.6375H46.15V55.1575H39.76V61.6375ZM46.86 61.6375H53.25V55.1575H46.86V61.6375ZM53.96 61.6375H60.35V55.1575H53.96V61.6375ZM61.06 61.6375H67.45V55.1575H61.06V61.6375ZM67.45 54.4375V47.9575H61.06V54.4375H67.45ZM60.35 54.4375V47.9575H53.96V54.4375H60.35ZM53.25 54.4375V47.9575H46.86V54.4375H53.25ZM46.15 54.4375V47.9575H39.76V54.4375H46.15ZM39.05 54.4375V47.9575H32.66V54.4375H39.05ZM31.95 54.4375V47.9575H25.56V54.4375H31.95ZM24.85 54.4375V47.9575H18.46V54.4375H24.85ZM17.75 54.4375V47.9575H11.36V54.4375H17.75ZM11.36 47.2375H17.75V40.7575H11.36V47.2375ZM18.46 47.2375H24.85V40.7575H18.46V47.2375ZM25.56 47.2375H31.95V40.7575H25.56V47.2375ZM32.66 47.2375H39.05V40.7575H32.66V47.2375ZM39.76 47.2375H46.15V40.7575H39.76V47.2375ZM46.86 47.2375H53.25V40.7575H46.86V47.2375ZM53.96 47.2375H60.35V40.7575H53.96V47.2375ZM61.06 47.2375H67.45V40.7575H61.06V47.2375ZM67.45 40.0375V33.5575H61.06V40.0375H67.45ZM60.35 40.0375V33.5575H53.96V40.0375H60.35ZM53.25 40.0375V33.5575H46.86V40.0375H53.25ZM46.15 40.0375V33.5575H39.76V40.0375H46.15ZM39.05 40.0375V33.5575H32.66V40.0375H39.05ZM31.95 40.0375V33.5575H25.56V40.0375H31.95ZM24.85 40.0375V33.5575H18.46V40.0375H24.85ZM17.75 40.0375V33.5575H11.36V40.0375H17.75ZM11.36 32.8375H17.75V26.3575H11.36V32.8375ZM18.46 32.8375H24.85V26.3575H18.46V32.8375ZM25.56 32.8375H31.95V26.3575H25.56V32.8375ZM32.66 32.8375H39.05V26.3575H32.66V32.8375ZM39.76 32.8375H46.15V26.3575H39.76V32.8375ZM46.86 32.8375H53.25V26.3575H46.86V32.8375ZM53.96 32.8375H60.35V26.3575H53.96V32.8375ZM61.06 32.8375H67.45V26.3575H61.06V32.8375ZM67.45 25.6375V19.1575H61.06V25.6375H67.45ZM60.35 25.6375V19.1575H53.96V25.6375H60.35ZM53.25 25.6375V19.1575H46.86V25.6375H53.25ZM46.15 25.6375V19.1575H39.76V25.6375H46.15ZM39.05 25.6375V19.1575H32.66V25.6375H39.05ZM31.95 25.6375V19.1575H25.56V25.6375H31.95ZM24.85 25.6375V19.1575H18.46V25.6375H24.85ZM17.75 25.6375V19.1575H11.36V25.6375H17.75ZM11.36 18.4375H17.75V11.9575H11.36V18.4375ZM18.46 18.4375H24.85V11.9575H18.46V18.4375ZM25.56 18.4375H31.95V11.9575H25.56V18.4375ZM32.66 18.4375H39.05V11.9575H32.66V18.4375ZM39.76 18.4375H46.15V11.9575H39.76V18.4375ZM46.86 18.4375H53.25V11.9575H46.86V18.4375ZM53.96 18.4375H60.35V11.9575H53.96V18.4375ZM61.06 18.4375H67.45V11.9575H61.06V18.4375Z" fill="black"/>
<path fill-rule="evenodd" clip-rule="evenodd" d="M4.26 4.0375V0.4375H3.55V4.0375H0V4.7575H3.55V72.4375H4.26V4.7575H71V4.0375H4.26Z" fill="black"/>
</g>
<g clip-path="url(#clip3_2_60)">
<path opacity="0.5" fill-rule="evenodd" clip-rule="evenodd" d="M68.16 139.887H71V140.597H68.16V143.437H67.45V140.597H61.06V143.437H60.35V140.597H53.96V143.437H53.25V140.597H46.86V143.437H46.15V140.597H39.76V143.437H39.05V140.597H32.66V143.437H31.95V140.597H25.56V143.437H24.85V140.597H18.46V143.437H17.75V140.597H11.36V143.437H10.65V140.597H0V139.887H10.65V133.497H0V132.787H10.65V126.397H0V125.687H10.65V119.297H0V118.587H10.65V112.197H0V111.487H10.65V105.097H0V104.387H10.65V97.9975H0V97.2875H10.65V90.8975H0V90.1875H10.65V83.7975H0V83.0875H10.65V72.4375H11.36V83.0875H17.75V72.4375H18.46V83.0875H24.85V72.4375H25.56V83.0875H31.95V72.4375H32.66V83.0875H39.05V72.4375H39.76V83.0875H46.15V72.4375H46.86V83.0875H53.25V72.4375H53.96V83.0875H60.35V72.4375H61.06V83.0875H67.45V72.4375H68.16V83.0875H71V83.7975H68.16V90.1875H71V90.8975H68.16V97.2875H71V97.9975H68.16V104.387H71V105.097H68.16V111.487H71V112.197H68.16V118.587H71V119.297H68.16V125.687H71V126.397H68.16V132.787H71V133.497H68.16V139.887ZM67.45 139.887V133.497H61.06V139.887H67.45ZM60.35 139.887V133.497H53.96V139.887H60.35ZM53.25 139.887V133.497H46.86V139.887H53.25ZM46.15 139.887V133.497H39.76V139.887H46.15ZM39.05 139.887V133.497H32.66V139.887H39.05ZM31.95 139.887V133.497H25.56V139.887H31.95ZM24.85 139.887V133.497H18.46V139.887H24.85ZM17.75 139.887V133.497H11.36V139.887H17.75ZM11.36 132.787H17.75V126.397H11.36V132.787ZM18.46 132.787H24.85V126.397H18.46V132.787ZM25.56 132.787H31.95V126.397H25.56V132.787ZM32.66 132.787H39.05V126.397H32.66V132.787ZM39.76 132.787H46.15V126.397H39.76V132.787ZM46.86 132.787H53.25V126.397H46.86V132.787ZM53.96 132.787H60.35V126.397H53.96V132.787ZM61.06 132.787H67.45V126.397H61.06V132.787ZM67.45 125.687V119.297H61.06V125.687H67.45ZM60.35 125.687V119.297H53.96V125.687H60.35ZM53.25 125.687V119.297H46.86V125.687H53.25ZM46.15 125.687V119.297H39.76V125.687H46.15ZM39.05 125.687V119.297H32.66V125.687H39.05ZM31.95 125.687V119.297H25.56V125.687H31.95ZM24.85 125.687V119.297H18.46V125.687H24.85ZM17.75 125.687V119.297H11.36V125.687H17.75ZM11.36 118.587H17.75V112.197H11.36V118.587ZM18.46 118.587H24.85V112.197H18.46V118.587ZM25.56 118.587H31.95V112.197H25.56V118.587ZM32.66 118.587H39.05V112.197H32.66V118.587ZM39.76 118.587H46.15V112.197H39.76V118.587ZM46.86 118.587H53.25V112.197H46.86V118.587ZM53.96 118.587H60.35V112.197H53.96V118.587ZM61.06 118.587H67.45V112.197H61.06V118.587ZM67.45 111.487V105.097H61.06V111.487H67.45ZM60.35 111.487V105.097H53.96V111.487H60.35ZM53.25 111.487V105.097H46.86V111.487H53.25ZM46.15 111.487V105.097H39.76V111.487H46.15ZM39.05 111.487V105.097H32.66V111.487H39.05ZM31.95 111.487V105.097H25.56V111.487H31.95ZM24.85 111.487V105.097H18.46V111.487H24.85ZM17.75 111.487V105.097H11.36V111.487H17.75ZM11.36 104.387H17.75V97.9975H11.36V104.387ZM18.46 104.387H24.85V97.9975H18.46V104.387ZM25.56 104.387H31.95V97.9975H25.56V104.387ZM32.66 104.387H39.05V97.9975H32.66V104.387ZM39.76 104.387H46.15V97.9975H39.76V104.387ZM46.86 104.387H53.25V97.9975H46.86V104.387ZM53.96 104.387H60.35V97.9975H53.96V104.387ZM61.06 104.387H67.45V97.9975H61.06V104.387ZM67.45 97.2875V90.8975H61.06V97.2875H67.45ZM60.35 97.2875V90.8975H53.96V97.2875H60.35ZM53.25 97.2875V90.8975H46.86V97.2875H53.25ZM46.15 97.2875V90.8975H39.76V97.2875H46.15ZM39.05 97.2875V90.8975H32.66V97.2875H39.05ZM31.95 97.2875V90.8975H25.56V97.2875H31.95ZM24.85 97.2875V90.8975H18.46V97.2875H24.85ZM17.75 97.2875V90.8975H11.36V97.2875H17.75ZM11.36 90.1875H17.75V83.7975H11.36V90.1875ZM18.46 90.1875H24.85V83.7975H18.46V90.1875ZM25.56 90.1875H31.95V83.7975H25.56V90.1875ZM32.66 90.1875H39.05V83.7975H32.66V90.1875ZM39.76 90.1875H46.15V83.7975H39.76V90.1875ZM46.86 90.1875H53.25V83.7975H46.86V90.1875ZM53.96 90.1875H60.35V83.7975H53.96V90.1875ZM61.06 90.1875H67.45V83.7975H61.06V90.1875Z" fill="black"/>
<path fill-rule="evenodd" clip-rule="evenodd" d="M4.26 75.9875V72.4375H3.55V75.9875H0V76.6975H3.55V143.437H4.26V76.6975H71V75.9875H4.26Z" fill="black"/>
</g>
<g clip-path="url(#clip4_2_60)">
<path opacity="0.5" fill-rule="evenodd" clip-rule="evenodd" d="M141.08 68.8375H144V69.5575H141.08V72.4375H140.35V69.5575H133.78V72.4375H133.05V69.5575H126.48V72.4375H125.75V69.5575H119.18V72.4375H118.45V69.5575H111.88V72.4375H111.15V69.5575H104.58V72.4375H103.85V69.5575H97.28V72.4375H96.55V69.5575H89.98V72.4375H89.25V69.5575H82.68V72.4375H81.95V69.5575H71V68.8375H81.95V62.3575H71V61.6375H81.95V55.1575H71V54.4375H81.95V47.9575H71V47.2375H81.95V40.7575H71V40.0375H81.95V33.5575H71V32.8375H81.95V26.3575H71V25.6375H81.95V19.1575H71V18.4375H81.95V11.9575H71V11.2375H81.95V0.4375H82.68V11.2375H89.25V0.4375H89.98V11.2375H96.55V0.4375H97.28V11.2375H103.85V0.4375H104.58V11.2375H111.15V0.4375H111.88V11.2375H118.45V0.4375H119.18V11.2375H125.75V0.4375H126.48V11.2375H133.05V0.4375H133.78V11.2375H140.35V0.4375H141.08V11.2375H144V11.9575H141.08V18.4375H144V19.1575H141.08V25.6375H144V26.3575H141.08V32.8375H144V33.5575H141.08V40.0375H144V40.7575H141.08V47.2375H144V47.9575H141.08V54.4375H144V55.1575H141.08V61.6375H144V62.3575H141.08V68.8375ZM140.35 68.8375V62.3575H133.78V68.8375H140.35ZM133.05 68.8375V62.3575H126.48V68.8375H133.05ZM125.75 68.8375V62.3575H119.18V68.8375H125.75ZM118.45 68.8375V62.3575H111.88V68.8375H118.45ZM111.15 68.8375V62.3575H104.58V68.8375H111.15ZM103.85 68.8375V62.3575H97.28V68.8375H103.85ZM96.55 68.8375V62.3575H89.98V68.8375H96.55ZM89.25 68.8375V62.3575H82.68V68.8375H89.25ZM82.68 61.6375H89.25V55.1575H82.68V61.6375ZM89.98 61.6375H96.55V55.1575H89.98V61.6375ZM97.28 61.6375H103.85V55.1575H97.28V61.6375ZM104.58 61.6375H111.15V55.1575H104.58V61.6375ZM111.88 61.6375H118.45V55.1575H111.88V61.6375ZM119.18 61.6375H125.75V55.1575H119.18V61.6375ZM126.48 61.6375H133.05V55.1575H126.48V61.6375ZM133.78 61.6375H140.35V55.1575H133.78V61.6375ZM140.35 54.4375V47.9575H133.78V54.4375H140.35ZM133.05 54.4375V47.9575H126.48V54.4375H133.05ZM125.75 54.4375V47.9575H119.18V54.4375H125.75ZM118.45 54.4375V47.9575H111.88V54.4375H118.45ZM111.15 54.4375V47.9575H104.58V54.4375H111.15ZM103.85 54.4375V47.9575H97.28V54.4375H103.85ZM96.55 54.4375V47.9575H89.98V54.4375H96.55ZM89.25 54.4375V47.9575H82.68V54.4375H89.25ZM82.68 47.2375H89.25V40.7575H82.68V47.2375ZM89.98 47.2375H96.55V40.7575H89.98V47.2375ZM97.28 47.2375H103.85V40.7575H97.28V47.2375ZM104.58 47.2375H111.15V40.7575H104.58V47.2375ZM111.88 47.2375H118.45V40.7575H111.88V47.2375ZM119.18 47.2375H125.75V40.7575H119.18V47.2375ZM126.48 47.2375H133.05V40.7575H126.48V47.2375ZM133.78 47.2375H140.35V40.7575H133.78V47.2375ZM140.35 40.0375V33.5575H133.78V40.0375H140.35ZM133.05 40.0375V33.5575H126.48V40.0375H133.05ZM125.75 40.0375V33.5575H119.18V40.0375H125.75ZM118.45 40.0375V33.5575H111.88V40.0375H118.45ZM111.15 40.0375V33.5575H104.58V40.0375H111.15ZM103.85 40.0375V33.5575H97.28V40.0375H103.85ZM96.55 40.0375V33.5575H89.98V40.0375H96.55ZM89.25 40.0375V33.5575H82.68V40.0375H89.25ZM82.68 32.8375H89.25V26.3575H82.68V32.8375ZM89.98 32.8375H96.55V26.3575H89.98V32.8375ZM97.28 32.8375H103.85V26.3575H97.28V32.8375ZM104.58 32.8375H111.15V26.3575H104.58V32.8375ZM111.88 32.8375H118.45V26.3575H111.88V32.8375ZM119.18 32.8375H125.75V26.3575H119.18V32.8375ZM126.48 32.8375H133.05V26.3575H126.48V32.8375ZM133.78 32.8375H140.35V26.3575H133.78V32.8375ZM140.35 25.6375V19.1575H133.78V25.6375H140.35ZM133.05 25.6375V19.1575H126.48V25.6375H133.05ZM125.75 25.6375V19.1575H119.18V25.6375H125.75ZM118.45 25.6375V19.1575H111.88V25.6375H118.45ZM111.15 25.6375V19.1575H104.58V25.6375H111.15ZM103.85 25.6375V19.1575H97.28V25.6375H103.85ZM96.55 25.6375V19.1575H89.98V25.6375H96.55ZM89.25 25.6375V19.1575H82.68V25.6375H89.25ZM82.68 18.4375H89.25V11.9575H82.68V18.4375ZM89.98 18.4375H96.55V11.9575H89.98V18.4375ZM97.28 18.4375H103.85V11.9575H97.28V18.4375ZM104.58 18.4375H111.15V11.9575H104.58V18.4375ZM111.88 18.4375H118.45V11.9575H111.88V18.4375ZM119.18 18.4375H125.75V11.9575H119.18V18.4375ZM126.48 18.4375H133.05V11.9575H126.48V18.4375ZM133.78 18.4375H140.35V11.9575H133.78V18.4375Z" fill="black"/>
<path fill-rule="evenodd" clip-rule="evenodd" d="M75.38 4.0375V0.4375H74.65V4.0375H71V4.7575H74.65V72.4375H75.38V4.7575H144V4.0375H75.38Z" fill="black"/>
</g>
<g clip-path="url(#clip5_2_60)">
<path opacity="0.5" fill-rule="evenodd" clip-rule="evenodd" d="M141.08 139.887H144V140.597H141.08V143.437H140.35V140.597H133.78V143.437H133.05V140.597H126.48V143.437H125.75V140.597H119.18V143.437H118.45V140.597H111.88V143.437H111.15V140.597H104.58V143.437H103.85V140.597H97.28V143.437H96.55V140.597H89.98V143.437H89.25V140.597H82.68V143.437H81.95V140.597H71V139.887H81.95V133.497H71V132.787H81.95V126.397H71V125.687H81.95V119.297H71V118.587H81.95V112.197H71V111.487H81.95V105.097H71V104.387H81.95V97.9975H71V97.2875H81.95V90.8975H71V90.1875H81.95V83.7975H71V83.0875H81.95V72.4375H82.68V83.0875H89.25V72.4375H89.98V83.0875H96.55V72.4375H97.28V83.0875H103.85V72.4375H104.58V83.0875H111.15V72.4375H111.88V83.0875H118.45V72.4375H119.18V83.0875H125.75V72.4375H126.48V83.0875H133.05V72.4375H133.78V83.0875H140.35V72.4375H141.08V83.0875H144V83.7975H141.08V90.1875H144V90.8975H141.08V97.2875H144V97.9975H141.08V104.387H144V105.097H141.08V111.487H144V112.197H141.08V118.587H144V119.297H141.08V125.687H144V126.397H141.08V132.787H144V133.497H141.08V139.887ZM140.35 139.887V133.497H133.78V139.887H140.35ZM133.05 139.887V133.497H126.48V139.887H133.05ZM125.75 139.887V133.497H119.18V139.887H125.75ZM118.45 139.887V133.497H111.88V139.887H118.45ZM111.15 139.887V133.497H104.58V139.887H111.15ZM103.85 139.887V133.497H97.28V139.887H103.85ZM96.55 139.887V133.497H89.98V139.887H96.55ZM89.25 139.887V133.497H82.68V139.887H89.25ZM82.68 132.787H89.25V126.397H82.68V132.787ZM89.98 132.787H96.55V126.397H89.98V132.787ZM97.28 132.787H103.85V126.397H97.28V132.787ZM104.58 132.787H111.15V126.397H104.58V132.787ZM111.88 132.787H118.45V126.397H111.88V132.787ZM119.18 132.787H125.75V126.397H119.18V132.787ZM126.48 132.787H133.05V126.397H126.48V132.787ZM133.78 132.787H140.35V126.397H133.78V132.787ZM140.35 125.687V119.297H133.78V125.687H140.35ZM133.05 125.687V119.297H126.48V125.687H133.05ZM125.75 125.687V119.297H119.18V125.687H125.75ZM118.45 125.687V119.297H111.88V125.687H118.45ZM111.15 125.687V119.297H104.58V125.687H111.15ZM103.85 125.687V119.297H97.28V125.687H103.85ZM96.55 125.687V119.297H89.98V125.687H96.55ZM89.25 125.687V119.297H82.68V125.687H89.25ZM82.68 118.587H89.25V112.197H82.68V118.587ZM89.98 118.587H96.55V112.197H89.98V118.587ZM97.28 118.587H103.85V112.197H97.28V118.587ZM104.58 118.587H111.15V112.197H104.58V118.587ZM111.88 118.587H118.45V112.197H111.88V118.587ZM119.18 118.587H125.75V112.197H119.18V118.587ZM126.48 118.587H133.05V112.197H126.48V118.587ZM133.78 118.587H140.35V112.197H133.78V118.587ZM140.35 111.487V105.097H133.78V111.487H140.35ZM133.05 111.487V105.097H126.48V111.487H133.05ZM125.75 111.487V105.097H119.18V111.487H125.75ZM118.45 111.487V105.097H111.88V111.487H118.45ZM111.15 111.487V105.097H104.58V111.487H111.15ZM103.85 111.487V105.097H97.28V111.487H103.85ZM96.55 111.487V105.097H89.98V111.487H96.55ZM89.25 111.487V105.097H82.68V111.487H89.25ZM82.68 104.387H89.25V97.9975H82.68V104.387ZM89.98 104.387H96.55V97.9975H89.98V104.387ZM97.28 104.387H103.85V97.9975H97.28V104.387ZM104.58 104.387H111.15V97.9975H104.58V104.387ZM111.88 104.387H118.45V97.9975H111.88V104.387ZM119.18 104.387H125.75V97.9975H119.18V104.387ZM126.48 104.387H133.05V97.9975H126.48V104.387ZM133.78 104.387H140.35V97.9975H133.78V104.387ZM140.35 97.2875V90.8975H133.78V97.2875H140.35ZM133.05 97.2875V90.8975H126.48V97.2875H133.05ZM125.75 97.2875V90.8975H119.18V97.2875H125.75ZM118.45 97.2875V90.8975H111.88V97.2875H118.45ZM111.15 97.2875V90.8975H104.58V97.2875H111.15ZM103.85 97.2875V90.8975H97.28V97.2875H103.85ZM96.55 97.2875V90.8975H89.98V97.2875H96.55ZM89.25 97.2875V90.8975H82.68V97.2875H89.25ZM82.68 90.1875H89.25V83.7975H82.68V90.1875ZM89.98 90.1875H96.55V83.7975H89.98V90.1875ZM97.28 90.1875H103.85V83.7975H97.28V90.1875ZM104.58 90.1875H111.15V83.7975H104.58V90.1875ZM111.88 90.1875H118.45V83.7975H111.88V90.1875ZM119.18 90.1875H125.75V83.7975H119.18V90.1875ZM126.48 90.1875H133.05V83.7975H126.48V90.1875ZM133.78 90.1875H140.35V83.7975H133.78V90.1875Z" fill="black"/>
<path fill-rule="evenodd" clip-rule="evenodd" d="M75.38 75.9875V72.4375H74.65V75.9875H71V76.6975H74.65V143.437H75.38V76.6975H144V75.9875H75.38Z" fill="black"/>
</g>
<g clip-path="url(#clip6_2_60)">
<path opacity="0.5" fill-rule="evenodd" clip-rule="evenodd" d="M212.16 68.8375H215V69.5575H212.16V72.4375H211.45V69.5575H205.06V72.4375H204.35V69.5575H197.96V72.4375H197.25V69.5575H190.86V72.4375H190.15V69.5575H183.76V72.4375H183.05V69.5575H176.66V72.4375H175.95V69.5575H169.56V72.4375H168.85V69.5575H162.46V72.4375H161.75V69.5575H155.36V72.4375H154.65V69.5575H144V68.8375H154.65V62.3575H144V61.6375H154.65V55.1575H144V54.4375H154.65V47.9575H144V47.2375H154.65V40.7575H144V40.0375H154.65V33.5575H144V32.8375H154.65V26.3575H144V25.6375H154.65V19.1575H144V18.4375H154.65V11.9575H144V11.2375H154.65V0.4375H155.36V11.2375H161.75V0.4375H162.46V11.2375H168.85V0.4375H169.56V11.2375H175.95V0.4375H176.66V11.2375H183.05V0.4375H183.76V11.2375H190.15V0.4375H190.86V11.2375H197.25V0.4375H197.96V11.2375H204.35V0.4375H205.06V11.2375H211.45V0.4375H212.16V11.2375H215V11.9575H212.16V18.4375H215V19.1575H212.16V25.6375H215V26.3575H212.16V32.8375H215V33.5575H212.16V40.0375H215V40.7575H212.16V47.2375H215V47.9575H212.16V54.4375H215V55.1575H212.16V61.6375H215V62.3575H212.16V68.8375ZM211.45 68.8375V62.3575H205.06V68.8375H211.45ZM204.35 68.8375V62.3575H197.96V68.8375H204.35ZM197.25 68.8375V62.3575H190.86V68.8375H197.25ZM190.15 68.8375V62.3575H183.76V68.8375H190.15ZM183.05 68.8375V62.3575H176.66V68.8375H183.05ZM175.95 68.8375V62.3575H169.56V68.8375H175.95ZM168.85 68.8375V62.3575H162.46V68.8375H168.85ZM161.75 68.8375V62.3575H155.36V68.8375H161.75ZM155.36 61.6375H161.75V55.1575H155.36V61.6375ZM162.46 61.6375H168.85V55.1575H162.46V61.6375ZM169.56 61.6375H175.95V55.1575H169.56V61.6375ZM176.66 61.6375H183.05V55.1575H176.66V61.6375ZM183.76 61.6375H190.15V55.1575H183.76V61.6375ZM190.86 61.6375H197.25V55.1575H190.86V61.6375ZM197.96 61.6375H204.35V55.1575H197.96V61.6375ZM205.06 61.6375H211.45V55.1575H205.06V61.6375ZM211.45 54.4375V47.9575H205.06V54.4375H211.45ZM204.35 54.4375V47.9575H197.96V54.4375H204.35ZM197.25 54.4375V47.9575H190.86V54.4375H197.25ZM190.15 54.4375V47.9575H183.76V54.4375H190.15ZM183.05 54.4375V47.9575H176.66V54.4375H183.05ZM175.95 54.4375V47.9575H169.56V54.4375H175.95ZM168.85 54.4375V47.9575H162.46V54.4375H168.85ZM161.75 54.4375V47.9575H155.36V54.4375H161.75ZM155.36 47.2375H161.75V40.7575H155.36V47.2375ZM162.46 47.2375H168.85V40.7575H162.46V47.2375ZM169.56 47.2375H175.95V40.7575H169.56V47.2375ZM176.66 47.2375H183.05V40.7575H176.66V47.2375ZM183.76 47.2375H190.15V40.7575H183.76V47.2375ZM190.86 47.2375H197.25V40.7575H190.86V47.2375ZM197.96 47.2375H204.35V40.7575H197.96V47.2375ZM205.06 47.2375H211.45V40.7575H205.06V47.2375ZM211.45 40.0375V33.5575H205.06V40.0375H211.45ZM204.35 40.0375V33.5575H197.96V40.0375H204.35ZM197.25 40.0375V33.5575H190.86V40.0375H197.25ZM190.15 40.0375V33.5575H183.76V40.0375H190.15ZM183.05 40.0375V33.5575H176.66V40.0375H183.05ZM175.95 40.0375V33.5575H169.56V40.0375H175.95ZM168.85 40.0375V33.5575H162.46V40.0375H168.85ZM161.75 40.0375V33.5575H155.36V40.0375H161.75ZM155.36 32.8375H161.75V26.3575H155.36V32.8375ZM162.46 32.8375H168.85V26.3575H162.46V32.8375ZM169.56 32.8375H175.95V26.3575H169.56V32.8375ZM176.66 32.8375H183.05V26.3575H176.66V32.8375ZM183.76 32.8375H190.15V26.3575H183.76V32.8375ZM190.86 32.8375H197.25V26.3575H190.86V32.8375ZM197.96 32.8375H204.35V26.3575H197.96V32.8375ZM205.06 32.8375H211.45V26.3575H205.06V32.8375ZM211.45 25.6375V19.1575H205.06V25.6375H211.45ZM204.35 25.6375V19.1575H197.96V25.6375H204.35ZM197.25 25.6375V19.1575H190.86V25.6375H197.25ZM190.15 25.6375V19.1575H183.76V25.6375H190.15ZM183.05 25.6375V19.1575H176.66V25.6375H183.05ZM175.95 25.6375V19.1575H169.56V25.6375H175.95ZM168.85 25.6375V19.1575H162.46V25.6375H168.85ZM161.75 25.6375V19.1575H155.36V25.6375H161.75ZM155.36 18.4375H161.75V11.9575H155.36V18.4375ZM162.46 18.4375H168.85V11.9575H162.46V18.4375ZM169.56 18.4375H175.95V11.9575H169.56V18.4375ZM176.66 18.4375H183.05V11.9575H176.66V18.4375ZM183.76 18.4375H190.15V11.9575H183.76V18.4375ZM190.86 18.4375H197.25V11.9575H190.86V18.4375ZM197.96 18.4375H204.35V11.9575H197.96V18.4375ZM205.06 18.4375H211.45V11.9575H205.06V18.4375Z" fill="black"/>
<path fill-rule="evenodd" clip-rule="evenodd" d="M148.26 4.0375V0.4375H147.55V4.0375H144V4.7575H147.55V72.4375H148.26V4.7575H215V4.0375H148.26Z" fill="black"/>
</g>
<g clip-path="url(#clip7_2_60)">
<path opacity="0.5" fill-rule="evenodd" clip-rule="evenodd" d="M283.16 68.8375H286V69.5575H283.16V72.4375H282.45V69.5575H276.06V72.4375H275.35V69.5575H268.96V72.4375H268.25V69.5575H261.86V72.4375H261.15V69.5575H254.76V72.4375H254.05V69.5575H247.66V72.4375H246.95V69.5575H240.56V72.4375H239.85V69.5575H233.46V72.4375H232.75V69.5575H226.36V72.4375H225.65V69.5575H215V68.8375H225.65V62.3575H215V61.6375H225.65V55.1575H215V54.4375H225.65V47.9575H215V47.2375H225.65V40.7575H215V40.0375H225.65V33.5575H215V32.8375H225.65V26.3575H215V25.6375H225.65V19.1575H215V18.4375H225.65V11.9575H215V11.2375H225.65V0.4375H226.36V11.2375H232.75V0.4375H233.46V11.2375H239.85V0.4375H240.56V11.2375H246.95V0.4375H247.66V11.2375H254.05V0.4375H254.76V11.2375H261.15V0.4375H261.86V11.2375H268.25V0.4375H268.96V11.2375H275.35V0.4375H276.06V11.2375H282.45V0.4375H283.16V11.2375H286V11.9575H283.16V18.4375H286V19.1575H283.16V25.6375H286V26.3575H283.16V32.8375H286V33.5575H283.16V40.0375H286V40.7575H283.16V47.2375H286V47.9575H283.16V54.4375H286V55.1575H283.16V61.6375H286V62.3575H283.16V68.8375ZM282.45 68.8375V62.3575H276.06V68.8375H282.45ZM275.35 68.8375V62.3575H268.96V68.8375H275.35ZM268.25 68.8375V62.3575H261.86V68.8375H268.25ZM261.15 68.8375V62.3575H254.76V68.8375H261.15ZM254.05 68.8375V62.3575H247.66V68.8375H254.05ZM246.95 68.8375V62.3575H240.56V68.8375H246.95ZM239.85 68.8375V62.3575H233.46V68.8375H239.85ZM232.75 68.8375V62.3575H226.36V68.8375H232.75ZM226.36 61.6375H232.75V55.1575H226.36V61.6375ZM233.46 61.6375H239.85V55.1575H233.46V61.6375ZM240.56 61.6375H246.95V55.1575H240.56V61.6375ZM247.66 61.6375H254.05V55.1575H247.66V61.6375ZM254.76 61.6375H261.15V55.1575H254.76V61.6375ZM261.86 61.6375H268.25V55.1575H261.86V61.6375ZM268.96 61.6375H275.35V55.1575H268.96V61.6375ZM276.06 61.6375H282.45V55.1575H276.06V61.6375ZM282.45 54.4375V47.9575H276.06V54.4375H282.45ZM275.35 54.4375V47.9575H268.96V54.4375H275.35ZM268.25 54.4375V47.9575H261.86V54.4375H268.25ZM261.15 54.4375V47.9575H254.76V54.4375H261.15ZM254.05 54.4375V47.9575H247.66V54.4375H254.05ZM246.95 54.4375V47.9575H240.56V54.4375H246.95ZM239.85 54.4375V47.9575H233.46V54.4375H239.85ZM232.75 54.4375V47.9575H226.36V54.4375H232.75ZM226.36 47.2375H232.75V40.7575H226.36V47.2375ZM233.46 47.2375H239.85V40.7575H233.46V47.2375ZM240.56 47.2375H246.95V40.7575H240.56V47.2375ZM247.66 47.2375H254.05V40.7575H247.66V47.2375ZM254.76 47.2375H261.15V40.7575H254.76V47.2375ZM261.86 47.2375H268.25V40.7575H261.86V47.2375ZM268.96 47.2375H275.35V40.7575H268.96V47.2375ZM276.06 47.2375H282.45V40.7575H276.06V47.2375ZM282.45 40.0375V33.5575H276.06V40.0375H282.45ZM275.35 40.0375V33.5575H268.96V40.0375H275.35ZM268.25 40.0375V33.5575H261.86V40.0375H268.25ZM261.15 40.0375V33.5575H254.76V40.0375H261.15ZM254.05 40.0375V33.5575H247.66V40.0375H254.05ZM246.95 40.0375V33.5575H240.56V40.0375H246.95ZM239.85 40.0375V33.5575H233.46V40.0375H239.85ZM232.75 40.0375V33.5575H226.36V40.0375H232.75ZM226.36 32.8375H232.75V26.3575H226.36V32.8375ZM233.46 32.8375H239.85V26.3575H233.46V32.8375ZM240.56 32.8375H246.95V26.3575H240.56V32.8375ZM247.66 32.8375H254.05V26.3575H247.66V32.8375ZM254.76 32.8375H261.15V26.3575H254.76V32.8375ZM261.86 32.8375H268.25V26.3575H261.86V32.8375ZM268.96 32.8375H275.35V26.3575H268.96V32.8375ZM276.06 32.8375H282.45V26.3575H276.06V32.8375ZM282.45 25.6375V19.1575H276.06V25.6375H282.45ZM275.35 25.6375V19.1575H268.96V25.6375H275.35ZM268.25 25.6375V19.1575H261.86V25.6375H268.25ZM261.15 25.6375V19.1575H254.76V25.6375H261.15ZM254.05 25.6375V19.1575H247.66V25.6375H254.05ZM246.95 25.6375V19.1575H240.56V25.6375H246.95ZM239.85 25.6375V19.1575H233.46V25.6375H239.85ZM232.75 25.6375V19.1575H226.36V25.6375H232.75ZM226.36 18.4375H232.75V11.9575H226.36V18.4375ZM233.46 18.4375H239.85V11.9575H233.46V18.4375ZM240.56 18.4375H246.95V11.9575H240.56V18.4375ZM247.66 18.4375H254.05V11.9575H247.66V18.4375ZM254.76 18.4375H261.15V11.9575H254.76V18.4375ZM261.86 18.4375H268.25V11.9575H261.86V18.4375ZM268.96 18.4375H275.35V11.9575H268.96V18.4375ZM276.06 18.4375H282.45V11.9575H276.06V18.4375Z" fill="black"/>
<path fill-rule="evenodd" clip-rule="evenodd" d="M219.26 4.0375V0.4375H218.55V4.0375H215V4.7575H218.55V72.4375H219.26V4.7575H286V4.0375H219.26Z" fill="black"/>
</g>
<g clip-path="url(#clip8_2_60)">
<path opacity="0.5" fill-rule="evenodd" clip-rule="evenodd" d="M212.16 139.887H215V140.597H212.16V143.437H211.45V140.597H205.06V143.437H204.35V140.597H197.96V143.437H197.25V140.597H190.86V143.437H190.15V140.597H183.76V143.437H183.05V140.597H176.66V143.437H175.95V140.597H169.56V143.437H168.85V140.597H162.46V143.437H161.75V140.597H155.36V143.437H154.65V140.597H144V139.887H154.65V133.497H144V132.787H154.65V126.397H144V125.687H154.65V119.297H144V118.587H154.65V112.197H144V111.487H154.65V105.097H144V104.387H154.65V97.9975H144V97.2875H154.65V90.8975H144V90.1875H154.65V83.7975H144V83.0875H154.65V72.4375H155.36V83.0875H161.75V72.4375H162.46V83.0875H168.85V72.4375H169.56V83.0875H175.95V72.4375H176.66V83.0875H183.05V72.4375H183.76V83.0875H190.15V72.4375H190.86V83.0875H197.25V72.4375H197.96V83.0875H204.35V72.4375H205.06V83.0875H211.45V72.4375H212.16V83.0875H215V83.7975H212.16V90.1875H215V90.8975H212.16V97.2875H215V97.9975H212.16V104.387H215V105.097H212.16V111.487H215V112.197H212.16V118.587H215V119.297H212.16V125.687H215V126.397H212.16V132.787H215V133.497H212.16V139.887ZM211.45 139.887V133.497H205.06V139.887H211.45ZM204.35 139.887V133.497H197.96V139.887H204.35ZM197.25 139.887V133.497H190.86V139.887H197.25ZM190.15 139.887V133.497H183.76V139.887H190.15ZM183.05 139.887V133.497H176.66V139.887H183.05ZM175.95 139.887V133.497H169.56V139.887H175.95ZM168.85 139.887V133.497H162.46V139.887H168.85ZM161.75 139.887V133.497H155.36V139.887H161.75ZM155.36 132.787H161.75V126.397H155.36V132.787ZM162.46 132.787H168.85V126.397H162.46V132.787ZM169.56 132.787H175.95V126.397H169.56V132.787ZM176.66 132.787H183.05V126.397H176.66V132.787ZM183.76 132.787H190.15V126.397H183.76V132.787ZM190.86 132.787H197.25V126.397H190.86V132.787ZM197.96 132.787H204.35V126.397H197.96V132.787ZM205.06 132.787H211.45V126.397H205.06V132.787ZM211.45 125.687V119.297H205.06V125.687H211.45ZM204.35 125.687V119.297H197.96V125.687H204.35ZM197.25 125.687V119.297H190.86V125.687H197.25ZM190.15 125.687V119.297H183.76V125.687H190.15ZM183.05 125.687V119.297H176.66V125.687H183.05ZM175.95 125.687V119.297H169.56V125.687H175.95ZM168.85 125.687V119.297H162.46V125.687H168.85ZM161.75 125.687V119.297H155.36V125.687H161.75ZM155.36 118.587H161.75V112.197H155.36V118.587ZM162.46 118.587H168.85V112.197H162.46V118.587ZM169.56 118.587H175.95V112.197H169.56V118.587ZM176.66 118.587H183.05V112.197H176.66V118.587ZM183.76 118.587H190.15V112.197H183.76V118.587ZM190.86 118.587H197.25V112.197H190.86V118.587ZM197.96 118.587H204.35V112.197H197.96V118.587ZM205.06 118.587H211.45V112.197H205.06V118.587ZM211.45 111.487V105.097H205.06V111.487H211.45ZM204.35 111.487V105.097H197.96V111.487H204.35ZM197.25 111.487V105.097H190.86V111.487H197.25ZM190.15 111.487V105.097H183.76V111.487H190.15ZM183.05 111.487V105.097H176.66V111.487H183.05ZM175.95 111.487V105.097H169.56V111.487H175.95ZM168.85 111.487V105.097H162.46V111.487H168.85ZM161.75 111.487V105.097H155.36V111.487H161.75ZM155.36 104.387H161.75V97.9975H155.36V104.387ZM162.46 104.387H168.85V97.9975H162.46V104.387ZM169.56 104.387H175.95V97.9975H169.56V104.387ZM176.66 104.387H183.05V97.9975H176.66V104.387ZM183.76 104.387H190.15V97.9975H183.76V104.387ZM190.86 104.387H197.25V97.9975H190.86V104.387ZM197.96 104.387H204.35V97.9975H197.96V104.387ZM205.06 104.387H211.45V97.9975H205.06V104.387ZM211.45 97.2875V90.8975H205.06V97.2875H211.45ZM204.35 97.2875V90.8975H197.96V97.2875H204.35ZM197.25 97.2875V90.8975H190.86V97.2875H197.25ZM190.15 97.2875V90.8975H183.76V97.2875H190.15ZM183.05 97.2875V90.8975H176.66V97.2875H183.05ZM175.95 97.2875V90.8975H169.56V97.2875H175.95ZM168.85 97.2875V90.8975H162.46V97.2875H168.85ZM161.75 97.2875V90.8975H155.36V97.2875H161.75ZM155.36 90.1875H161.75V83.7975H155.36V90.1875ZM162.46 90.1875H168.85V83.7975H162.46V90.1875ZM169.56 90.1875H175.95V83.7975H169.56V90.1875ZM176.66 90.1875H183.05V83.7975H176.66V90.1875ZM183.76 90.1875H190.15V83.7975H183.76V90.1875ZM190.86 90.1875H197.25V83.7975H190.86V90.1875ZM197.96 90.1875H204.35V83.7975H197.96V90.1875ZM205.06 90.1875H211.45V83.7975H205.06V90.1875Z" fill="black"/>
<path fill-rule="evenodd" clip-rule="evenodd" d="M148.26 75.9875V72.4375H147.55V75.9875H144V76.6975H147.55V143.437H148.26V76.6975H215V75.9875H148.26Z" fill="black"/>
</g>
<g clip-path="url(#clip9_2_60)">
<path opacity="0.5" fill-rule="evenodd" clip-rule="evenodd" d="M283.16 139.887H286V140.597H283.16V143.437H282.45V140.597H276.06V143.437H275.35V140.597H268.96V143.437H268.25V140.597H261.86V143.437H261.15V140.597H254.76V143.437H254.05V140.597H247.66V143.437H246.95V140.597H240.56V143.437H239.85V140.597H233.46V143.437H232.75V140.597H226.36V143.437H225.65V140.597H215V139.887H225.65V133.497H215V132.787H225.65V126.397H215V125.687H225.65V119.297H215V118.587H225.65V112.197H215V111.487H225.65V105.097H215V104.387H225.65V97.9975H215V97.2875H225.65V90.8975H215V90.1875H225.65V83.7975H215V83.0875H225.65V72.4375H226.36V83.0875H232.75V72.4375H233.46V83.0875H239.85V72.4375H240.56V83.0875H246.95V72.4375H247.66V83.0875H254.05V72.4375H254.76V83.0875H261.15V72.4375H261.86V83.0875H268.25V72.4375H268.96V83.0875H275.35V72.4375H276.06V83.0875H282.45V72.4375H283.16V83.0875H286V83.7975H283.16V90.1875H286V90.8975H283.16V97.2875H286V97.9975H283.16V104.387H286V105.097H283.16V111.487H286V112.197H283.16V118.587H286V119.297H283.16V125.687H286V126.397H283.16V132.787H286V133.497H283.16V139.887ZM282.45 139.887V133.497H276.06V139.887H282.45ZM275.35 139.887V133.497H268.96V139.887H275.35ZM268.25 139.887V133.497H261.86V139.887H268.25ZM261.15 139.887V133.497H254.76V139.887H261.15ZM254.05 139.887V133.497H247.66V139.887H254.05ZM246.95 139.887V133.497H240.56V139.887H246.95ZM239.85 139.887V133.497H233.46V139.887H239.85ZM232.75 139.887V133.497H226.36V139.887H232.75ZM226.36 132.787H232.75V126.397H226.36V132.787ZM233.46 132.787H239.85V126.397H233.46V132.787ZM240.56 132.787H246.95V126.397H240.56V132.787ZM247.66 132.787H254.05V126.397H247.66V132.787ZM254.76 132.787H261.15V126.397H254.76V132.787ZM261.86 132.787H268.25V126.397H261.86V132.787ZM268.96 132.787H275.35V126.397H268.96V132.787ZM276.06 132.787H282.45V126.397H276.06V132.787ZM282.45 125.687V119.297H276.06V125.687H282.45ZM275.35 125.687V119.297H268.96V125.687H275.35ZM268.25 125.687V119.297H261.86V125.687H268.25ZM261.15 125.687V119.297H254.76V125.687H261.15ZM254.05 125.687V119.297H247.66V125.687H254.05ZM246.95 125.687V119.297H240.56V125.687H246.95ZM239.85 125.687V119.297H233.46V125.687H239.85ZM232.75 125.687V119.297H226.36V125.687H232.75ZM226.36 118.587H232.75V112.197H226.36V118.587ZM233.46 118.587H239.85V112.197H233.46V118.587ZM240.56 118.587H246.95V112.197H240.56V118.587ZM247.66 118.587H254.05V112.197H247.66V118.587ZM254.76 118.587H261.15V112.197H254.76V118.587ZM261.86 118.587H268.25V112.197H261.86V118.587ZM268.96 118.587H275.35V112.197H268.96V118.587ZM276.06 118.587H282.45V112.197H276.06V118.587ZM282.45 111.487V105.097H276.06V111.487H282.45ZM275.35 111.487V105.097H268.96V111.487H275.35ZM268.25 111.487V105.097H261.86V111.487H268.25ZM261.15 111.487V105.097H254.76V111.487H261.15ZM254.05 111.487V105.097H247.66V111.487H254.05ZM246.95 111.487V105.097H240.56V111.487H246.95ZM239.85 111.487V105.097H233.46V111.487H239.85ZM232.75 111.487V105.097H226.36V111.487H232.75ZM226.36 104.387H232.75V97.9975H226.36V104.387ZM233.46 104.387H239.85V97.9975H233.46V104.387ZM240.56 104.387H246.95V97.9975H240.56V104.387ZM247.66 104.387H254.05V97.9975H247.66V104.387ZM254.76 104.387H261.15V97.9975H254.76V104.387ZM261.86 104.387H268.25V97.9975H261.86V104.387ZM268.96 104.387H275.35V97.9975H268.96V104.387ZM276.06 104.387H282.45V97.9975H276.06V104.387ZM282.45 97.2875V90.8975H276.06V97.2875H282.45ZM275.35 97.2875V90.8975H268.96V97.2875H275.35ZM268.25 97.2875V90.8975H261.86V97.2875H268.25ZM261.15 97.2875V90.8975H254.76V97.2875H261.15ZM254.05 97.2875V90.8975H247.66V97.2875H254.05ZM246.95 97.2875V90.8975H240.56V97.2875H246.95ZM239.85 97.2875V90.8975H233.46V97.2875H239.85ZM232.75 97.2875V90.8975H226.36V97.2875H232.75ZM226.36 90.1875H232.75V83.7975H226.36V90.1875ZM233.46 90.1875H239.85V83.7975H233.46V90.1875ZM240.56 90.1875H246.95V83.7975H240.56V90.1875ZM247.66 90.1875H254.05V83.7975H247.66V90.1875ZM254.76 90.1875H261.15V83.7975H254.76V90.1875ZM261.86 90.1875H268.25V83.7975H261.86V90.1875ZM268.96 90.1875H275.35V83.7975H268.96V90.1875ZM276.06 90.1875H282.45V83.7975H276.06V90.1875Z" fill="black"/>
<path fill-rule="evenodd" clip-rule="evenodd" d="M219.26 75.9875V72.4375H218.55V75.9875H215V76.6975H218.55V143.437H219.26V76.6975H286V75.9875H219.26Z" fill="black"/>
</g>
</g>
<path d="M62.5 24.4375H220L209.5 66.4375H52L62.5 24.4375Z" fill="black"/>
<path fill-rule="evenodd" clip-rule="evenodd" d="M84 34.9375C80.6863 34.9375 78 37.6238 78 40.9375V48.9375C78 52.2512 80.6863 54.9375 84 54.9375H88V51.5678C85.5292 51.5728 83.0646 50.5788 81.2628 48.6132L82.7372 47.2618C84.1445 48.7971 86.0701 49.5729 88 49.5678V34.9375H84ZM84.5 38.9375C83.6716 38.9375 83 39.6091 83 40.4375V42.4375C83 43.2659 83.6716 43.9375 84.5 43.9375C85.3284 43.9375 86 43.2659 86 42.4375V40.4375C86 39.6091 85.3284 38.9375 84.5 38.9375Z" fill="white"/>
<mask id="path-21-inside-1_2_60" fill="white">
<path fill-rule="evenodd" clip-rule="evenodd" d="M92 35.9375H88V34.9375H92C95.3137 34.9375 98 37.6238 98 40.9375V48.9375C98 52.2512 95.3137 54.9375 92 54.9375H88V53.9375H92C94.7614 53.9375 97 51.6989 97 48.9375V40.9375C97 38.1761 94.7614 35.9375 92 35.9375ZM88 51.5678V53.9375H84C81.2386 53.9375 79 51.6989 79 48.9375V40.9375C79 38.1761 81.2386 35.9375 84 35.9375H88V49.5678C86.0701 49.5729 84.1445 48.7971 82.7372 47.2618L81.2628 48.6132C83.0646 50.5788 85.5292 51.5728 88 51.5678ZM88 51.5678V49.5678C89.7183 49.5632 91.44 48.9396 92.8026 47.6819L93.3217 47.2027L94.6783 48.6723L94.1591 49.1515C92.4118 50.7644 90.2035 51.5634 88 51.5678ZM83 40.4375C83 39.6091 83.6716 38.9375 84.5 38.9375C85.3284 38.9375 86 39.6091 86 40.4375V42.4375C86 43.2659 85.3284 43.9375 84.5 43.9375C83.6716 43.9375 83 43.2659 83 42.4375V40.4375ZM91.5 38.9375C90.6716 38.9375 90 39.6091 90 40.4375V42.4375C90 43.2659 90.6716 43.9375 91.5 43.9375C92.3284 43.9375 93 43.2659 93 42.4375V40.4375C93 39.6091 92.3284 38.9375 91.5 38.9375Z"/>
</mask>
<path fill-rule="evenodd" clip-rule="evenodd" d="M92 35.9375H88V34.9375H92C95.3137 34.9375 98 37.6238 98 40.9375V48.9375C98 52.2512 95.3137 54.9375 92 54.9375H88V53.9375H92C94.7614 53.9375 97 51.6989 97 48.9375V40.9375C97 38.1761 94.7614 35.9375 92 35.9375ZM88 51.5678V53.9375H84C81.2386 53.9375 79 51.6989 79 48.9375V40.9375C79 38.1761 81.2386 35.9375 84 35.9375H88V49.5678C86.0701 49.5729 84.1445 48.7971 82.7372 47.2618L81.2628 48.6132C83.0646 50.5788 85.5292 51.5728 88 51.5678ZM88 51.5678V49.5678C89.7183 49.5632 91.44 48.9396 92.8026 47.6819L93.3217 47.2027L94.6783 48.6723L94.1591 49.1515C92.4118 50.7644 90.2035 51.5634 88 51.5678ZM83 40.4375C83 39.6091 83.6716 38.9375 84.5 38.9375C85.3284 38.9375 86 39.6091 86 40.4375V42.4375C86 43.2659 85.3284 43.9375 84.5 43.9375C83.6716 43.9375 83 43.2659 83 42.4375V40.4375ZM91.5 38.9375C90.6716 38.9375 90 39.6091 90 40.4375V42.4375C90 43.2659 90.6716 43.9375 91.5 43.9375C92.3284 43.9375 93 43.2659 93 42.4375V40.4375C93 39.6091 92.3284 38.9375 91.5 38.9375Z" fill="white"/>
<path d="M88 34.9375V33.9375H87V34.9375H88ZM88 54.9375H87V55.9375H88V54.9375ZM82.7372 47.2618L83.4743 46.5861L82.7986 45.8489L82.0614 46.5246L82.7372 47.2618ZM81.2628 48.6132L80.5871 47.8761L79.85 48.5518L80.5257 49.2889L81.2628 48.6132ZM92.8026 47.6819L93.4809 48.4167L93.4809 48.4167L92.8026 47.6819ZM93.3217 47.2027L94.0565 46.5244L93.3782 45.7896L92.6434 46.4679L93.3217 47.2027ZM94.6783 48.6723L95.3566 49.4071L96.0914 48.7288L95.4131 47.994L94.6783 48.6723ZM94.1591 49.1515L93.4809 48.4167L94.1591 49.1515ZM88 36.9375H92V34.9375H88V36.9375ZM87 34.9375V35.9375H89V34.9375H87ZM92 33.9375H88V35.9375H92V33.9375ZM99 40.9375C99 37.0715 95.866 33.9375 92 33.9375V35.9375C94.7614 35.9375 97 38.1761 97 40.9375H99ZM99 48.9375V40.9375H97V48.9375H99ZM92 55.9375C95.866 55.9375 99 52.8035 99 48.9375H97C97 51.6989 94.7614 53.9375 92 53.9375V55.9375ZM88 55.9375H92V53.9375H88V55.9375ZM87 53.9375V54.9375H89V53.9375H87ZM92 52.9375H88V54.9375H92V52.9375ZM96 48.9375C96 51.1466 94.2091 52.9375 92 52.9375V54.9375C95.3137 54.9375 98 52.2512 98 48.9375H96ZM96 40.9375V48.9375H98V40.9375H96ZM92 36.9375C94.2091 36.9375 96 38.7284 96 40.9375H98C98 37.6238 95.3137 34.9375 92 34.9375V36.9375ZM89 53.9375V51.5678H87V53.9375H89ZM84 54.9375H88V52.9375H84V54.9375ZM78 48.9375C78 52.2512 80.6863 54.9375 84 54.9375V52.9375C81.7909 52.9375 80 51.1466 80 48.9375H78ZM78 40.9375V48.9375H80V40.9375H78ZM84 34.9375C80.6863 34.9375 78 37.6238 78 40.9375H80C80 38.7284 81.7909 36.9375 84 36.9375V34.9375ZM88 34.9375H84V36.9375H88V34.9375ZM89 49.5678V35.9375H87V49.5678H89ZM82 47.9375C83.6053 49.6887 85.8034 50.5736 88.0026 50.5678L87.9974 48.5678C86.3368 48.5722 84.6837 47.9054 83.4743 46.5861L82 47.9375ZM81.9386 49.3504L83.4129 47.9989L82.0614 46.5246L80.5871 47.8761L81.9386 49.3504ZM87.998 50.5678C85.7964 50.5722 83.604 49.6873 82 47.9375L80.5257 49.2889C82.5252 51.4702 85.2621 52.5733 88.002 52.5678L87.998 50.5678ZM87 49.5678V51.5678H89V49.5678H87ZM92.1243 46.9471C90.9529 48.0284 89.475 48.5639 87.9974 48.5678L88.0026 50.5678C89.9615 50.5626 91.9271 49.8509 93.4809 48.4167L92.1243 46.9471ZM92.6434 46.4679L92.1243 46.9471L93.4809 48.4167L94 47.9375L92.6434 46.4679ZM95.4131 47.994L94.0565 46.5244L92.5869 47.881L93.9435 49.3506L95.4131 47.994ZM94.8374 49.8863L95.3566 49.4071L94 47.9375L93.4809 48.4167L94.8374 49.8863ZM88.002 52.5678C90.4463 52.5629 92.8987 51.6759 94.8374 49.8863L93.4809 48.4167C91.9249 49.853 89.9607 50.5639 87.998 50.5678L88.002 52.5678ZM84.5 37.9375C83.1193 37.9375 82 39.0568 82 40.4375H84C84 40.1614 84.2239 39.9375 84.5 39.9375V37.9375ZM87 40.4375C87 39.0568 85.8807 37.9375 84.5 37.9375V39.9375C84.7761 39.9375 85 40.1614 85 40.4375H87ZM87 42.4375V40.4375H85V42.4375H87ZM84.5 44.9375C85.8807 44.9375 87 43.8182 87 42.4375H85C85 42.7136 84.7761 42.9375 84.5 42.9375V44.9375ZM82 42.4375C82 43.8182 83.1193 44.9375 84.5 44.9375V42.9375C84.2239 42.9375 84 42.7136 84 42.4375H82ZM82 40.4375V42.4375H84V40.4375H82ZM91 40.4375C91 40.1614 91.2239 39.9375 91.5 39.9375V37.9375C90.1193 37.9375 89 39.0568 89 40.4375H91ZM91 42.4375V40.4375H89V42.4375H91ZM91.5 42.9375C91.2239 42.9375 91 42.7136 91 42.4375H89C89 43.8182 90.1193 44.9375 91.5 44.9375V42.9375ZM92 42.4375C92 42.7136 91.7761 42.9375 91.5 42.9375V44.9375C92.8807 44.9375 94 43.8182 94 42.4375H92ZM92 40.4375V42.4375H94V40.4375H92ZM91.5 39.9375C91.7761 39.9375 92 40.1614 92 40.4375H94C94 39.0568 92.8807 37.9375 91.5 37.9375V39.9375Z" fill="white" mask="url(#path-21-inside-1_2_60)"/>
<path d="M103.664 53.4375L111.08 36.6375H115.76L123.2 53.4375H118.256L112.448 38.9655H114.32L108.512 53.4375H103.664ZM107.72 50.1735L108.944 46.6695H117.152L118.376 50.1735H107.72ZM127.252 53.4375L121.9 40.4295H126.58L130.852 51.3015H128.5L132.988 40.4295H137.332L131.956 53.4375H127.252ZM146.01 53.4375V51.0135L145.698 50.4135V45.9495C145.698 45.2295 145.474 44.6775 145.026 44.2935C144.594 43.8935 143.898 43.6935 142.938 43.6935C142.314 43.6935 141.682 43.7975 141.042 44.0055C140.402 44.1975 139.858 44.4695 139.41 44.8215L137.874 41.7255C138.61 41.2455 139.49 40.8775 140.514 40.6215C141.554 40.3495 142.586 40.2135 143.61 40.2135C145.722 40.2135 147.354 40.7015 148.506 41.6775C149.674 42.6375 150.258 44.1495 150.258 46.2135V53.4375H146.01ZM142.17 53.6535C141.13 53.6535 140.25 53.4775 139.53 53.1255C138.81 52.7735 138.258 52.2935 137.874 51.6855C137.506 51.0775 137.322 50.3975 137.322 49.6455C137.322 48.8455 137.522 48.1575 137.922 47.5815C138.338 46.9895 138.97 46.5415 139.818 46.2375C140.666 45.9175 141.762 45.7575 143.106 45.7575H146.178V48.1335H143.73C142.994 48.1335 142.474 48.2535 142.17 48.4935C141.882 48.7335 141.738 49.0535 141.738 49.4535C141.738 49.8535 141.89 50.1735 142.194 50.4135C142.498 50.6535 142.914 50.7735 143.442 50.7735C143.938 50.7735 144.386 50.6535 144.786 50.4135C145.202 50.1575 145.506 49.7735 145.698 49.2615L146.322 50.9415C146.082 51.8375 145.61 52.5175 144.906 52.9815C144.218 53.4295 143.306 53.6535 142.17 53.6535ZM153.136 53.4375V35.6295H157.696V53.4375H153.136ZM167.187 53.6535C165.763 53.6535 164.499 53.3655 163.395 52.7895C162.291 52.2135 161.419 51.4215 160.779 50.4135C160.155 49.3895 159.843 48.2215 159.843 46.9095C159.843 45.5975 160.155 44.4375 160.779 43.4295C161.419 42.4215 162.291 41.6375 163.395 41.0775C164.499 40.5015 165.763 40.2135 167.187 40.2135C168.611 40.2135 169.875 40.5015 170.979 41.0775C172.099 41.6375 172.971 42.4215 173.595 43.4295C174.219 44.4375 174.531 45.5975 174.531 46.9095C174.531 48.2215 174.219 49.3895 173.595 50.4135C172.971 51.4215 172.099 52.2135 170.979 52.7895C169.875 53.3655 168.611 53.6535 167.187 53.6535ZM167.187 50.0295C167.715 50.0295 168.179 49.9095 168.579 49.6695C168.995 49.4295 169.323 49.0775 169.563 48.6135C169.803 48.1335 169.923 47.5655 169.923 46.9095C169.923 46.2535 169.803 45.7015 169.563 45.2535C169.323 44.7895 168.995 44.4375 168.579 44.1975C168.179 43.9575 167.715 43.8375 167.187 43.8375C166.675 43.8375 166.211 43.9575 165.795 44.1975C165.395 44.4375 165.067 44.7895 164.811 45.2535C164.571 45.7015 164.451 46.2535 164.451 46.9095C164.451 47.5655 164.571 48.1335 164.811 48.6135C165.067 49.0775 165.395 49.4295 165.795 49.6695C166.211 49.9095 166.675 50.0295 167.187 50.0295ZM183.004 58.3095C181.756 58.3095 180.564 58.1655 179.428 57.8775C178.308 57.5895 177.348 57.1655 176.548 56.6055L178.204 53.4135C178.748 53.8455 179.42 54.1815 180.22 54.4215C181.036 54.6775 181.828 54.8055 182.596 54.8055C183.828 54.8055 184.716 54.5335 185.26 53.9895C185.804 53.4615 186.076 52.6855 186.076 51.6615V50.1255L186.316 46.4775L186.292 42.8055V40.4295H190.636V51.0615C190.636 53.5255 189.972 55.3495 188.644 56.5335C187.316 57.7175 185.436 58.3095 183.004 58.3095ZM182.212 52.7655C181.06 52.7655 179.996 52.5095 179.02 51.9975C178.06 51.4695 177.284 50.7415 176.692 49.8135C176.116 48.8695 175.828 47.7575 175.828 46.4775C175.828 45.1975 176.116 44.0935 176.692 43.1655C177.284 42.2215 178.06 41.4935 179.02 40.9815C179.996 40.4695 181.06 40.2135 182.212 40.2135C183.316 40.2135 184.26 40.4375 185.044 40.8855C185.828 41.3175 186.42 41.9975 186.82 42.9255C187.236 43.8535 187.444 45.0375 187.444 46.4775C187.444 47.9175 187.236 49.1015 186.82 50.0295C186.42 50.9575 185.828 51.6455 185.044 52.0935C184.26 52.5415 183.316 52.7655 182.212 52.7655ZM183.292 49.1415C183.836 49.1415 184.316 49.0295 184.732 48.8055C185.164 48.5815 185.5 48.2695 185.74 47.8695C185.996 47.4695 186.124 47.0055 186.124 46.4775C186.124 45.9495 185.996 45.4855 185.74 45.0855C185.5 44.6855 185.164 44.3815 184.732 44.1735C184.316 43.9495 183.836 43.8375 183.292 43.8375C182.748 43.8375 182.26 43.9495 181.828 44.1735C181.396 44.3815 181.052 44.6855 180.796 45.0855C180.556 45.4855 180.436 45.9495 180.436 46.4775C180.436 47.0055 180.556 47.4695 180.796 47.8695C181.052 48.2695 181.396 48.5815 181.828 48.8055C182.26 49.0295 182.748 49.1415 183.292 49.1415Z" fill="white"/>
</g>
<rect x="3" y="3.4375" width="265" height="84.3333" stroke="white" stroke-width="6"/>
<defs>
<clipPath id="clip0_2_60">
<rect y="0.4375" width="271" height="90.3333" fill="white"/>
</clipPath>
<clipPath id="clip1_2_60">
<rect width="271" height="90.6667" fill="white" transform="translate(0 0.4375)"/>
</clipPath>
<clipPath id="clip2_2_60">
<rect width="71" height="72" fill="white" transform="translate(0 0.4375)"/>
</clipPath>
<clipPath id="clip3_2_60">
<rect width="71" height="71" fill="white" transform="translate(0 72.4375)"/>
</clipPath>
<clipPath id="clip4_2_60">
<rect width="73" height="72" fill="white" transform="translate(71 0.4375)"/>
</clipPath>
<clipPath id="clip5_2_60">
<rect width="73" height="71" fill="white" transform="translate(71 72.4375)"/>
</clipPath>
<clipPath id="clip6_2_60">
<rect width="71" height="72" fill="white" transform="translate(144 0.4375)"/>
</clipPath>
<clipPath id="clip7_2_60">
<rect width="71" height="72" fill="white" transform="translate(215 0.4375)"/>
</clipPath>
<clipPath id="clip8_2_60">
<rect width="71" height="71" fill="white" transform="translate(144 72.4375)"/>
</clipPath>
<clipPath id="clip9_2_60">
<rect width="71" height="71" fill="white" transform="translate(215 72.4375)"/>
</clipPath>
</defs>
</svg>
