<svg width="168" height="42" viewBox="0 0 168 42" fill="none" xmlns="http://www.w3.org/2000/svg">
<path d="M10.5 0H168L157.5 42H0L10.5 0Z" fill="black"/>
<path fill-rule="evenodd" clip-rule="evenodd" d="M32 10.5C28.6863 10.5 26 13.1863 26 16.5V24.5C26 27.8137 28.6863 30.5 32 30.5H36V27.1303C33.5292 27.1353 31.0646 26.1413 29.2628 24.1757L30.7372 22.8243C32.1445 24.3596 34.0701 25.1354 36 25.1303V10.5H32ZM32.5 14.5C31.6716 14.5 31 15.1716 31 16V18C31 18.8284 31.6716 19.5 32.5 19.5C33.3284 19.5 34 18.8284 34 18V16C34 15.1716 33.3284 14.5 32.5 14.5Z" fill="white"/>
<mask id="path-3-inside-1_1_118" fill="white">
<path fill-rule="evenodd" clip-rule="evenodd" d="M40 11.5H36V10.5H40C43.3137 10.5 46 13.1863 46 16.5V24.5C46 27.8137 43.3137 30.5 40 30.5H36V29.5H40C42.7614 29.5 45 27.2614 45 24.5V16.5C45 13.7386 42.7614 11.5 40 11.5ZM36 27.1303V29.5H32C29.2386 29.5 27 27.2614 27 24.5V16.5C27 13.7386 29.2386 11.5 32 11.5H36V25.1303C34.0701 25.1354 32.1445 24.3596 30.7372 22.8243L29.2628 24.1757C31.0646 26.1413 33.5292 27.1353 36 27.1303ZM36 27.1303V25.1303C37.7183 25.1257 39.44 24.5021 40.8026 23.2444L41.3217 22.7652L42.6783 24.2348L42.1591 24.714C40.4118 26.3269 38.2035 27.1259 36 27.1303ZM31 16C31 15.1716 31.6716 14.5 32.5 14.5C33.3284 14.5 34 15.1716 34 16V18C34 18.8284 33.3284 19.5 32.5 19.5C31.6716 19.5 31 18.8284 31 18V16ZM39.5 14.5C38.6716 14.5 38 15.1716 38 16V18C38 18.8284 38.6716 19.5 39.5 19.5C40.3284 19.5 41 18.8284 41 18V16C41 15.1716 40.3284 14.5 39.5 14.5Z"/>
</mask>
<path fill-rule="evenodd" clip-rule="evenodd" d="M40 11.5H36V10.5H40C43.3137 10.5 46 13.1863 46 16.5V24.5C46 27.8137 43.3137 30.5 40 30.5H36V29.5H40C42.7614 29.5 45 27.2614 45 24.5V16.5C45 13.7386 42.7614 11.5 40 11.5ZM36 27.1303V29.5H32C29.2386 29.5 27 27.2614 27 24.5V16.5C27 13.7386 29.2386 11.5 32 11.5H36V25.1303C34.0701 25.1354 32.1445 24.3596 30.7372 22.8243L29.2628 24.1757C31.0646 26.1413 33.5292 27.1353 36 27.1303ZM36 27.1303V25.1303C37.7183 25.1257 39.44 24.5021 40.8026 23.2444L41.3217 22.7652L42.6783 24.2348L42.1591 24.714C40.4118 26.3269 38.2035 27.1259 36 27.1303ZM31 16C31 15.1716 31.6716 14.5 32.5 14.5C33.3284 14.5 34 15.1716 34 16V18C34 18.8284 33.3284 19.5 32.5 19.5C31.6716 19.5 31 18.8284 31 18V16ZM39.5 14.5C38.6716 14.5 38 15.1716 38 16V18C38 18.8284 38.6716 19.5 39.5 19.5C40.3284 19.5 41 18.8284 41 18V16C41 15.1716 40.3284 14.5 39.5 14.5Z" fill="white"/>
<path d="M36 10.5V9.5H35V10.5H36ZM36 30.5H35V31.5H36V30.5ZM30.7372 22.8243L31.4743 22.1486L30.7986 21.4114L30.0614 22.0871L30.7372 22.8243ZM29.2628 24.1757L28.5871 23.4386L27.85 24.1143L28.5257 24.8514L29.2628 24.1757ZM40.8026 23.2444L41.4809 23.9792L40.8026 23.2444ZM41.3217 22.7652L42.0565 22.0869L41.3782 21.3521L40.6434 22.0304L41.3217 22.7652ZM42.6783 24.2348L43.3566 24.9696L44.0914 24.2913L43.4131 23.5565L42.6783 24.2348ZM42.1591 24.714L41.4809 23.9792L42.1591 24.714ZM36 12.5H40V10.5H36V12.5ZM35 10.5V11.5H37V10.5H35ZM40 9.5H36V11.5H40V9.5ZM47 16.5C47 12.634 43.866 9.5 40 9.5V11.5C42.7614 11.5 45 13.7386 45 16.5H47ZM47 24.5V16.5H45V24.5H47ZM40 31.5C43.866 31.5 47 28.366 47 24.5H45C45 27.2614 42.7614 29.5 40 29.5V31.5ZM36 31.5H40V29.5H36V31.5ZM35 29.5V30.5H37V29.5H35ZM40 28.5H36V30.5H40V28.5ZM44 24.5C44 26.7091 42.2091 28.5 40 28.5V30.5C43.3137 30.5 46 27.8137 46 24.5H44ZM44 16.5V24.5H46V16.5H44ZM40 12.5C42.2091 12.5 44 14.2909 44 16.5H46C46 13.1863 43.3137 10.5 40 10.5V12.5ZM37 29.5V27.1303H35V29.5H37ZM32 30.5H36V28.5H32V30.5ZM26 24.5C26 27.8137 28.6863 30.5 32 30.5V28.5C29.7909 28.5 28 26.7091 28 24.5H26ZM26 16.5V24.5H28V16.5H26ZM32 10.5C28.6863 10.5 26 13.1863 26 16.5H28C28 14.2909 29.7909 12.5 32 12.5V10.5ZM36 10.5H32V12.5H36V10.5ZM37 25.1303V11.5H35V25.1303H37ZM30 23.5C31.6053 25.2512 33.8034 26.1361 36.0026 26.1303L35.9974 24.1303C34.3368 24.1347 32.6837 23.4679 31.4743 22.1486L30 23.5ZM29.9386 24.9129L31.4129 23.5614L30.0614 22.0871L28.5871 23.4386L29.9386 24.9129ZM35.998 26.1303C33.7964 26.1347 31.604 25.2498 30 23.5L28.5257 24.8514C30.5252 27.0327 33.2621 28.1358 36.002 28.1303L35.998 26.1303ZM35 25.1303V27.1303H37V25.1303H35ZM40.1243 22.5096C38.9529 23.5909 37.475 24.1264 35.9974 24.1303L36.0026 26.1303C37.9615 26.1251 39.9271 25.4134 41.4809 23.9792L40.1243 22.5096ZM40.6434 22.0304L40.1243 22.5096L41.4809 23.9792L42 23.5L40.6434 22.0304ZM43.4131 23.5565L42.0565 22.0869L40.5869 23.4435L41.9435 24.9131L43.4131 23.5565ZM42.8374 25.4488L43.3566 24.9696L42 23.5L41.4809 23.9792L42.8374 25.4488ZM36.002 28.1303C38.4463 28.1254 40.8987 27.2384 42.8374 25.4488L41.4809 23.9792C39.9249 25.4155 37.9607 26.1264 35.998 26.1303L36.002 28.1303ZM32.5 13.5C31.1193 13.5 30 14.6193 30 16H32C32 15.7239 32.2239 15.5 32.5 15.5V13.5ZM35 16C35 14.6193 33.8807 13.5 32.5 13.5V15.5C32.7761 15.5 33 15.7239 33 16H35ZM35 18V16H33V18H35ZM32.5 20.5C33.8807 20.5 35 19.3807 35 18H33C33 18.2761 32.7761 18.5 32.5 18.5V20.5ZM30 18C30 19.3807 31.1193 20.5 32.5 20.5V18.5C32.2239 18.5 32 18.2761 32 18H30ZM30 16V18H32V16H30ZM39 16C39 15.7239 39.2239 15.5 39.5 15.5V13.5C38.1193 13.5 37 14.6193 37 16H39ZM39 18V16H37V18H39ZM39.5 18.5C39.2239 18.5 39 18.2761 39 18H37C37 19.3807 38.1193 20.5 39.5 20.5V18.5ZM40 18C40 18.2761 39.7761 18.5 39.5 18.5V20.5C40.8807 20.5 42 19.3807 42 18H40ZM40 16V18H42V16H40ZM39.5 15.5C39.7761 15.5 40 15.7239 40 16H42C42 14.6193 40.8807 13.5 39.5 13.5V15.5Z" fill="white" mask="url(#path-3-inside-1_1_118)"/>
<path d="M51.664 29L59.08 12.2H63.76L71.2 29H66.256L60.448 14.528H62.32L56.512 29H51.664ZM55.72 25.736L56.944 22.232H65.152L66.376 25.736H55.72ZM75.2521 29L69.9001 15.992H74.5801L78.8521 26.864H76.5001L80.9881 15.992H85.3321L79.9561 29H75.2521ZM94.0096 29V26.576L93.6976 25.976V21.512C93.6976 20.792 93.4736 20.24 93.0256 19.856C92.5936 19.456 91.8976 19.256 90.9376 19.256C90.3136 19.256 89.6816 19.36 89.0416 19.568C88.4016 19.76 87.8576 20.032 87.4096 20.384L85.8736 17.288C86.6096 16.808 87.4896 16.44 88.5136 16.184C89.5536 15.912 90.5856 15.776 91.6096 15.776C93.7216 15.776 95.3536 16.264 96.5056 17.24C97.6736 18.2 98.2576 19.712 98.2576 21.776V29H94.0096ZM90.1696 29.216C89.1296 29.216 88.2496 29.04 87.5296 28.688C86.8096 28.336 86.2576 27.856 85.8736 27.248C85.5056 26.64 85.3216 25.96 85.3216 25.208C85.3216 24.408 85.5216 23.72 85.9216 23.144C86.3376 22.552 86.9696 22.104 87.8176 21.8C88.6656 21.48 89.7616 21.32 91.1056 21.32H94.1776V23.696H91.7296C90.9936 23.696 90.4736 23.816 90.1696 24.056C89.8816 24.296 89.7376 24.616 89.7376 25.016C89.7376 25.416 89.8896 25.736 90.1936 25.976C90.4976 26.216 90.9136 26.336 91.4416 26.336C91.9376 26.336 92.3856 26.216 92.7856 25.976C93.2016 25.72 93.5056 25.336 93.6976 24.824L94.3216 26.504C94.0816 27.4 93.6096 28.08 92.9056 28.544C92.2176 28.992 91.3056 29.216 90.1696 29.216ZM101.136 29V11.192H105.696V29H101.136ZM115.187 29.216C113.763 29.216 112.499 28.928 111.395 28.352C110.291 27.776 109.419 26.984 108.779 25.976C108.155 24.952 107.843 23.784 107.843 22.472C107.843 21.16 108.155 20 108.779 18.992C109.419 17.984 110.291 17.2 111.395 16.64C112.499 16.064 113.763 15.776 115.187 15.776C116.611 15.776 117.875 16.064 118.979 16.64C120.099 17.2 120.971 17.984 121.595 18.992C122.219 20 122.531 21.16 122.531 22.472C122.531 23.784 122.219 24.952 121.595 25.976C120.971 26.984 120.099 27.776 118.979 28.352C117.875 28.928 116.611 29.216 115.187 29.216ZM115.187 25.592C115.715 25.592 116.179 25.472 116.579 25.232C116.995 24.992 117.323 24.64 117.563 24.176C117.803 23.696 117.923 23.128 117.923 22.472C117.923 21.816 117.803 21.264 117.563 20.816C117.323 20.352 116.995 20 116.579 19.76C116.179 19.52 115.715 19.4 115.187 19.4C114.675 19.4 114.211 19.52 113.795 19.76C113.395 20 113.067 20.352 112.811 20.816C112.571 21.264 112.451 21.816 112.451 22.472C112.451 23.128 112.571 23.696 112.811 24.176C113.067 24.64 113.395 24.992 113.795 25.232C114.211 25.472 114.675 25.592 115.187 25.592ZM131.004 33.872C129.756 33.872 128.564 33.728 127.428 33.44C126.308 33.152 125.348 32.728 124.548 32.168L126.204 28.976C126.748 29.408 127.42 29.744 128.22 29.984C129.036 30.24 129.828 30.368 130.596 30.368C131.828 30.368 132.716 30.096 133.26 29.552C133.804 29.024 134.076 28.248 134.076 27.224V25.688L134.316 22.04L134.292 18.368V15.992H138.636V26.624C138.636 29.088 137.972 30.912 136.644 32.096C135.316 33.28 133.436 33.872 131.004 33.872ZM130.212 28.328C129.06 28.328 127.996 28.072 127.02 27.56C126.06 27.032 125.284 26.304 124.692 25.376C124.116 24.432 123.828 23.32 123.828 22.04C123.828 20.76 124.116 19.656 124.692 18.728C125.284 17.784 126.06 17.056 127.02 16.544C127.996 16.032 129.06 15.776 130.212 15.776C131.316 15.776 132.26 16 133.044 16.448C133.828 16.88 134.42 17.56 134.82 18.488C135.236 19.416 135.444 20.6 135.444 22.04C135.444 23.48 135.236 24.664 134.82 25.592C134.42 26.52 133.828 27.208 133.044 27.656C132.26 28.104 131.316 28.328 130.212 28.328ZM131.292 24.704C131.836 24.704 132.316 24.592 132.732 24.368C133.164 24.144 133.5 23.832 133.74 23.432C133.996 23.032 134.124 22.568 134.124 22.04C134.124 21.512 133.996 21.048 133.74 20.648C133.5 20.248 133.164 19.944 132.732 19.736C132.316 19.512 131.836 19.4 131.292 19.4C130.748 19.4 130.26 19.512 129.828 19.736C129.396 19.944 129.052 20.248 128.796 20.648C128.556 21.048 128.436 21.512 128.436 22.04C128.436 22.568 128.556 23.032 128.796 23.432C129.052 23.832 129.396 24.144 129.828 24.368C130.26 24.592 130.748 24.704 131.292 24.704Z" fill="white"/>
</svg>
