<svg width="168" height="42" viewBox="0 0 168 42" fill="none" xmlns="http://www.w3.org/2000/svg">
<path d="M10.5 0H168L157.5 42H0L10.5 0Z" fill="black"/>
<path fill-rule="evenodd" clip-rule="evenodd" d="M33 10.5C29.6863 10.5 27 13.1863 27 16.5V24.5C27 27.8137 29.6863 30.5 33 30.5H37V27.1303C34.5292 27.1353 32.0646 26.1413 30.2628 24.1757L31.7372 22.8243C33.1445 24.3596 35.0701 25.1354 37 25.1303V10.5H33ZM33.5 14.5C32.6716 14.5 32 15.1716 32 16V18C32 18.8284 32.6716 19.5 33.5 19.5C34.3284 19.5 35 18.8284 35 18V16C35 15.1716 34.3284 14.5 33.5 14.5Z" fill="white"/>
<mask id="path-3-inside-1_1_118" fill="white">
<path fill-rule="evenodd" clip-rule="evenodd" d="M41 11.5H37V10.5H41C44.3137 10.5 47 13.1863 47 16.5V24.5C47 27.8137 44.3137 30.5 41 30.5H37V29.5H41C43.7614 29.5 46 27.2614 46 24.5V16.5C46 13.7386 43.7614 11.5 41 11.5ZM37 27.1303V29.5H33C30.2386 29.5 28 27.2614 28 24.5V16.5C28 13.7386 30.2386 11.5 33 11.5H37V25.1303C35.0701 25.1354 33.1445 24.3596 31.7372 22.8243L30.2628 24.1757C32.0646 26.1413 34.5292 27.1353 37 27.1303ZM37 27.1303V25.1303C38.7183 25.1257 40.44 24.5021 41.8026 23.2444L42.3217 22.7652L43.6783 24.2348L43.1591 24.714C41.4118 26.3269 39.2035 27.1259 37 27.1303ZM32 16C32 15.1716 32.6716 14.5 33.5 14.5C34.3284 14.5 35 15.1716 35 16V18C35 18.8284 34.3284 19.5 33.5 19.5C32.6716 19.5 32 18.8284 32 18V16ZM40.5 14.5C39.6716 14.5 39 15.1716 39 16V18C39 18.8284 39.6716 19.5 40.5 19.5C41.3284 19.5 42 18.8284 42 18V16C42 15.1716 41.3284 14.5 40.5 14.5Z"/>
</mask>
<path fill-rule="evenodd" clip-rule="evenodd" d="M41 11.5H37V10.5H41C44.3137 10.5 47 13.1863 47 16.5V24.5C47 27.8137 44.3137 30.5 41 30.5H37V29.5H41C43.7614 29.5 46 27.2614 46 24.5V16.5C46 13.7386 43.7614 11.5 41 11.5ZM37 27.1303V29.5H33C30.2386 29.5 28 27.2614 28 24.5V16.5C28 13.7386 30.2386 11.5 33 11.5H37V25.1303C35.0701 25.1354 33.1445 24.3596 31.7372 22.8243L30.2628 24.1757C32.0646 26.1413 34.5292 27.1353 37 27.1303ZM37 27.1303V25.1303C38.7183 25.1257 40.44 24.5021 41.8026 23.2444L42.3217 22.7652L43.6783 24.2348L43.1591 24.714C41.4118 26.3269 39.2035 27.1259 37 27.1303ZM32 16C32 15.1716 32.6716 14.5 33.5 14.5C34.3284 14.5 35 15.1716 35 16V18C35 18.8284 34.3284 19.5 33.5 19.5C32.6716 19.5 32 18.8284 32 18V16ZM40.5 14.5C39.6716 14.5 39 15.1716 39 16V18C39 18.8284 39.6716 19.5 40.5 19.5C41.3284 19.5 42 18.8284 42 18V16C42 15.1716 41.3284 14.5 40.5 14.5Z" fill="white"/>
<path d="M37 10.5V9.5H36V10.5H37ZM37 30.5H36V31.5H37V30.5ZM31.7372 22.8243L32.4743 22.1486L31.7986 21.4114L31.0614 22.0871L31.7372 22.8243ZM30.2628 24.1757L29.5871 23.4386L28.85 24.1143L29.5257 24.8514L30.2628 24.1757ZM41.8026 23.2444L42.4809 23.9792L41.8026 23.2444ZM42.3217 22.7652L43.0565 22.0869L42.3782 21.3521L41.6434 22.0304L42.3217 22.7652ZM43.6783 24.2348L44.3566 24.9696L45.0914 24.2913L44.4131 23.5565L43.6783 24.2348ZM43.1591 24.714L42.4809 23.9792L43.1591 24.714ZM37 12.5H41V10.5H37V12.5ZM36 10.5V11.5H38V10.5H36ZM41 9.5H37V11.5H41V9.5ZM48 16.5C48 12.634 44.866 9.5 41 9.5V11.5C43.7614 11.5 46 13.7386 46 16.5H48ZM48 24.5V16.5H46V24.5H48ZM41 31.5C44.866 31.5 48 28.366 48 24.5H46C46 27.2614 43.7614 29.5 41 29.5V31.5ZM37 31.5H41V29.5H37V31.5ZM36 29.5V30.5H38V29.5H36ZM41 28.5H37V30.5H41V28.5ZM45 24.5C45 26.7091 43.2091 28.5 41 28.5V30.5C44.3137 30.5 47 27.8137 47 24.5H45ZM45 16.5V24.5H47V16.5H45ZM41 12.5C43.2091 12.5 45 14.2909 45 16.5H47C47 13.1863 44.3137 10.5 41 10.5V12.5ZM38 29.5V27.1303H36V29.5H38ZM33 30.5H37V28.5H33V30.5ZM27 24.5C27 27.8137 29.6863 30.5 33 30.5V28.5C30.7909 28.5 29 26.7091 29 24.5H27ZM27 16.5V24.5H29V16.5H27ZM33 10.5C29.6863 10.5 27 13.1863 27 16.5H29C29 14.2909 30.7909 12.5 33 12.5V10.5ZM37 10.5H33V12.5H37V10.5ZM38 25.1303V11.5H36V25.1303H38ZM31 23.5C32.6053 25.2512 34.8034 26.1361 37.0026 26.1303L36.9974 24.1303C35.3368 24.1347 33.6837 23.4679 32.4743 22.1486L31 23.5ZM30.9386 24.9129L32.4129 23.5614L31.0614 22.0871L29.5871 23.4386L30.9386 24.9129ZM36.998 26.1303C34.7964 26.1347 32.604 25.2498 31 23.5L29.5257 24.8514C31.5252 27.0327 34.2621 28.1358 37.002 28.1303L36.998 26.1303ZM36 25.1303V27.1303H38V25.1303H36ZM41.1243 22.5096C39.9529 23.5909 38.475 24.1264 36.9974 24.1303L37.0026 26.1303C38.9615 26.1251 40.9271 25.4134 42.4809 23.9792L41.1243 22.5096ZM41.6434 22.0304L41.1243 22.5096L42.4809 23.9792L43 23.5L41.6434 22.0304ZM44.4131 23.5565L43.0565 22.0869L41.5869 23.4435L42.9435 24.9131L44.4131 23.5565ZM43.8374 25.4488L44.3566 24.9696L43 23.5L42.4809 23.9792L43.8374 25.4488ZM37.002 28.1303C39.4463 28.1254 41.8987 27.2384 43.8374 25.4488L42.4809 23.9792C40.9249 25.4155 38.9607 26.1264 36.998 26.1303L37.002 28.1303ZM33.5 13.5C32.1193 13.5 31 14.6193 31 16H33C33 15.7239 33.2239 15.5 33.5 15.5V13.5ZM36 16C36 14.6193 34.8807 13.5 33.5 13.5V15.5C33.7761 15.5 34 15.7239 34 16H36ZM36 18V16H34V18H36ZM33.5 20.5C34.8807 20.5 36 19.3807 36 18H34C34 18.2761 33.7761 18.5 33.5 18.5V20.5ZM31 18C31 19.3807 32.1193 20.5 33.5 20.5V18.5C33.2239 18.5 33 18.2761 33 18H31ZM31 16V18H33V16H31ZM40 16C40 15.7239 40.2239 15.5 40.5 15.5V13.5C39.1193 13.5 38 14.6193 38 16H40ZM40 18V16H38V18H40ZM40.5 18.5C40.2239 18.5 40 18.2761 40 18H38C38 19.3807 39.1193 20.5 40.5 20.5V18.5ZM41 18C41 18.2761 40.7761 18.5 40.5 18.5V20.5C41.8807 20.5 43 19.3807 43 18H41ZM41 16V18H43V16H41ZM40.5 15.5C40.7761 15.5 41 15.7239 41 16H43C43 14.6193 41.8807 13.5 40.5 13.5V15.5Z" fill="white" mask="url(#path-3-inside-1_1_118)"/>
<path d="M52.784 29L60.272 12.2H64.112L71.624 29H67.544L61.4 14.168H62.936L56.768 29H52.784ZM56.528 25.4L57.56 22.448H66.2L67.256 25.4H56.528ZM75.9273 29L70.5033 16.088H74.3673L78.8793 27.2H76.9593L81.6393 16.088H85.2393L79.7913 29H75.9273ZM94.2652 29V26.48L94.0252 25.928V21.416C94.0252 20.616 93.7772 19.992 93.2812 19.544C92.8012 19.096 92.0572 18.872 91.0492 18.872C90.3612 18.872 89.6812 18.984 89.0092 19.208C88.3532 19.416 87.7932 19.704 87.3292 20.072L85.9852 17.456C86.6892 16.96 87.5372 16.576 88.5292 16.304C89.5212 16.032 90.5292 15.896 91.5532 15.896C93.5212 15.896 95.0492 16.36 96.1372 17.288C97.2252 18.216 97.7692 19.664 97.7692 21.632V29H94.2652ZM90.3292 29.192C89.3212 29.192 88.4572 29.024 87.7372 28.688C87.0172 28.336 86.4652 27.864 86.0812 27.272C85.6972 26.68 85.5052 26.016 85.5052 25.28C85.5052 24.512 85.6892 23.84 86.0572 23.264C86.4412 22.688 87.0412 22.24 87.8572 21.92C88.6732 21.584 89.7372 21.416 91.0492 21.416H94.4812V23.6H91.4572C90.5772 23.6 89.9692 23.744 89.6332 24.032C89.3132 24.32 89.1532 24.68 89.1532 25.112C89.1532 25.592 89.3372 25.976 89.7052 26.264C90.0892 26.536 90.6092 26.672 91.2652 26.672C91.8892 26.672 92.4492 26.528 92.9452 26.24C93.4412 25.936 93.8012 25.496 94.0252 24.92L94.6012 26.648C94.3292 27.48 93.8332 28.112 93.1132 28.544C92.3932 28.976 91.4652 29.192 90.3292 29.192ZM101.158 29V11.192H104.902V29H101.158ZM114.52 29.192C113.144 29.192 111.92 28.904 110.848 28.328C109.792 27.752 108.952 26.968 108.328 25.976C107.72 24.968 107.416 23.824 107.416 22.544C107.416 21.248 107.72 20.104 108.328 19.112C108.952 18.104 109.792 17.32 110.848 16.76C111.92 16.184 113.144 15.896 114.52 15.896C115.88 15.896 117.096 16.184 118.168 16.76C119.24 17.32 120.08 18.096 120.688 19.088C121.296 20.08 121.6 21.232 121.6 22.544C121.6 23.824 121.296 24.968 120.688 25.976C120.08 26.968 119.24 27.752 118.168 28.328C117.096 28.904 115.88 29.192 114.52 29.192ZM114.52 26.12C115.144 26.12 115.704 25.976 116.2 25.688C116.696 25.4 117.088 24.992 117.376 24.464C117.664 23.92 117.808 23.28 117.808 22.544C117.808 21.792 117.664 21.152 117.376 20.624C117.088 20.096 116.696 19.688 116.2 19.4C115.704 19.112 115.144 18.968 114.52 18.968C113.896 18.968 113.336 19.112 112.84 19.4C112.344 19.688 111.944 20.096 111.64 20.624C111.352 21.152 111.208 21.792 111.208 22.544C111.208 23.28 111.352 23.92 111.64 24.464C111.944 24.992 112.344 25.4 112.84 25.688C113.336 25.976 113.896 26.12 114.52 26.12ZM130.175 33.848C128.959 33.848 127.783 33.696 126.647 33.392C125.527 33.104 124.591 32.664 123.839 32.072L125.327 29.384C125.871 29.832 126.559 30.184 127.391 30.44C128.239 30.712 129.071 30.848 129.887 30.848C131.215 30.848 132.175 30.552 132.767 29.96C133.375 29.368 133.679 28.488 133.679 27.32V25.376L133.919 22.136L133.871 18.872V16.088H137.423V26.84C137.423 29.24 136.799 31.008 135.551 32.144C134.303 33.28 132.511 33.848 130.175 33.848ZM129.599 28.376C128.399 28.376 127.311 28.12 126.335 27.608C125.375 27.08 124.599 26.352 124.007 25.424C123.431 24.48 123.143 23.384 123.143 22.136C123.143 20.872 123.431 19.776 124.007 18.848C124.599 17.904 125.375 17.176 126.335 16.664C127.311 16.152 128.399 15.896 129.599 15.896C130.687 15.896 131.647 16.12 132.479 16.568C133.311 17 133.959 17.68 134.423 18.608C134.887 19.52 135.119 20.696 135.119 22.136C135.119 23.56 134.887 24.736 134.423 25.664C133.959 26.576 133.311 27.256 132.479 27.704C131.647 28.152 130.687 28.376 129.599 28.376ZM130.343 25.304C130.999 25.304 131.583 25.176 132.095 24.92C132.607 24.648 133.007 24.272 133.295 23.792C133.583 23.312 133.727 22.76 133.727 22.136C133.727 21.496 133.583 20.944 133.295 20.48C133.007 20 132.607 19.632 132.095 19.376C131.583 19.104 130.999 18.968 130.343 18.968C129.687 18.968 129.103 19.104 128.591 19.376C128.079 19.632 127.671 20 127.367 20.48C127.079 20.944 126.935 21.496 126.935 22.136C126.935 22.76 127.079 23.312 127.367 23.792C127.671 24.272 128.079 24.648 128.591 24.92C129.103 25.176 129.687 25.304 130.343 25.304Z" fill="white"/>
</svg>
